<svg width="131" height="40" viewBox="0 0 131 40" fill="none" xmlns="http://www.w3.org/2000/svg">
<path d="M0.33622 16.5953C1.00616 13.3048 1.87397 11.0913 3.55589 8.71345C6.83492 4.0739 11.7054 1.11219 17.2769 0.743747C25.6978 0.18258 34.3025 -0.282223 42.6188 0.803267C55.2459 2.45276 62.2195 13.1688 59.1496 24.4006C58.7624 25.8177 58.0896 27.1611 57.3744 28.9807C54.1378 26.3307 51.1951 23.9642 48.3232 21.5239C47.9387 21.198 47.7861 20.5008 47.6956 19.9481C46.6836 13.7328 43.382 10.5245 37.0642 10.2014C32.3266 9.96049 27.555 9.95199 22.8174 10.2014C16.6409 10.5245 12.4856 14.328 12.2962 19.3728C12.0955 24.7294 15.7788 28.6859 21.927 29.2499C25.3134 29.5617 28.7536 29.3066 32.7393 29.3066C31.063 27.8215 29.7288 26.6425 28.3974 25.4634C28.5189 25.2395 28.6433 25.0185 28.7649 24.7946C34.0848 24.7946 39.4048 24.7861 44.7275 24.8116C45.1063 24.8116 45.5586 24.959 45.8469 25.1942C51.4184 29.7516 56.9702 34.3344 62.5276 38.9116C62.4484 39.2092 62.6067 39.7024 62.5276 39.9999H46.3162C45.3579 39.9518 45.406 38.8946 44.4477 38.8464C43.4611 38.7982 42.4661 39.0165 41.4739 39.0278C34.1102 39.1128 26.6674 39.8894 19.4055 39.0732C9.47228 37.9565 1.65066 32.77 0.158135 22.309C0.0252773 21.3794 -0.189556 19.6562 0.33622 16.5953Z" fill="#211D53"/>
<path d="M114.803 29.403V39.5097C110.026 39.5097 105.404 39.589 100.788 39.4899C94.0261 39.3453 87.16 39.7534 80.5341 38.702C68.8483 36.8456 61.8916 27.2575 63.5057 16.2978C64.6166 8.75036 69.6087 4.32337 76.4466 1.76128C78.8719 0.851507 81.5376 0.154299 84.1071 0.108952C94.2127 -0.0781036 104.324 0.0324324 114.701 0.0324324V10.1164C112.748 10.1164 110.854 10.1164 108.963 10.1164C101.681 10.1164 94.3964 10.0569 87.1176 10.1391C80.9072 10.21 76.2515 13.5826 75.5646 18.2959C74.6685 24.446 79.2677 29.2415 86.4872 29.3605C94.7781 29.4994 103.075 29.4002 111.368 29.403C112.454 29.403 113.539 29.403 114.808 29.403H114.803Z" fill="#211D53"/>
<path d="M130.991 13.9965V39.283H119.119V13.9965H130.991Z" fill="#211D53"/>
<path d="M131 9.96903H119.111V0.182617H131V9.96903Z" fill="#211D53"/>
</svg>
