<?xml version="1.0" encoding="UTF-8"?>
<svg xmlns="http://www.w3.org/2000/svg" xmlns:svg="http://www.w3.org/2000/svg" xmlns:sodipodi="http://sodipodi.sourceforge.net/DTD/sodipodi-0.dtd" xmlns:rdf="http://www.w3.org/1999/02/22-rdf-syntax-ns#" xmlns:inkscape="http://www.inkscape.org/namespaces/inkscape" xmlns:dc="http://purl.org/dc/elements/1.1/" xmlns:cc="http://web.resource.org/cc/" version="1.1" viewBox="0 0 99.4 71">
  <!-- Generator: Adobe Illustrator 29.1.0, SVG Export Plug-In . SVG Version: 2.1.0 Build 142)  -->
  <defs>
    <style>
      .st0 {
        fill: #5aa945;
      }

      .st1 {
        fill: none;
        stroke: #000;
        stroke-width: 1px;
      }

      .st2 {
        fill: #94c5e8;
      }
    </style>
  </defs>
  <g id="svg2" onload="setup(evt)" onresize="resetInfo(evt)" onscroll="resetInfo(evt)" onzoom="resetInfo(evt)">
    <rect class="st2" x="0" y="0" width="99.4" height="71.1"/>
    <sodipodi:namedview id="base" width="154px" height="78px" bordercolor="#888888" borderopacity="1.0" gridtolerance="10.0" guidetolerance="10.0" inkscape:current-layer="svg2" inkscape:cx="207.754" inkscape:cy="44.653992" inkscape:pageopacity="0.0" inkscape:pageshadow="2" inkscape:window-height="692" inkscape:window-width="1172" inkscape:window-x="260" inkscape:window-y="50" inkscape:zoom="2" objecttolerance="10.0" pagecolor="#ffffff"/>
    <g>
      <path class="st0" d="M33.5,26.6h0c0-.1,0,0,0,0,0,0,0,0,0,0Z"/>
      <path class="st0" d="M29,49.7h0c0,0,0-.1,0-.2.2-.3.5-.4.9-.2.6.3,1,0,1.4-.4h0s0,0,0,0c.4,0,.9-.2.7-1.2h0c0-.1.2-.4.2-.4.2-.3.4-.5.6-.8-.1,0-.3.1-.4.3-.2.2-.5.5-.8,0-.2-.1-.7,0-.8,0,0,0,0,0,.1.1h0s0,.1,0,.1c0,.2,0,.4,0,.5-.1.2-.6,0-.7-.2,0,0,0,0,0,0-.7.3-1.4.5-2,.4,0,0,.2,0,.3,0,.2,0,.4,0,.5.3,0,.2,0,.4-.2.6-.2.2-.5.3-.7.4,0,0,.2.1.3.2.3,0,.5.3.6.5Z"/>
      <path class="st0" d="M53.7,26.1h0c0,0,0,0,0,0h0c0,0,0,0,0,0Z"/>
      <path class="st0" d="M53.8,26.2h0s0,0,0,0h0Z"/>
      <path class="st0" d="M95.1,11.8c-.2,0-.4-.3-.6-.7-.5-.9-1.2-1.1-1.9-1.3h-.1c-.2,0-.5,0-.7.1-.9.2-1.7.3-2.2,1.5h-.2c-.4-.7-.9-1-1.4-.8-.1,0-.3,0-.4,0,0,0-.1,0-.2,0h0s0,0,0,0h0c-.5.2-1.2.7-1.1,1.9h0c-.1.6-.4.9-.7,1.1-.2.2-.4.3-.6.6-.1.3-.4.2-.7,0-.3-.1-.5-.2-.5.2-.2,1.8-1.1,3.1-2.5,3.5-.2.1-.5.2-.8.3-.6.2-1.2.4-1.6,1.1h0c0,0,0,0,0,0-.5-.4-1-.1-1.5.8h0c-.5.4-1.1.5-2,.6-1.1-.4-1.9-.2-2.5.5h0s0,0,0,0c-.2,0-.3.3-.4.7-.1.4-.2.8-.5.7-.1,0-.3-.1-.4-.2-.6-.4-1-.6-1.2.2,0,.4-.3.7-.6.6-.3,0-.7-.3-.9-.7-.3-.1-.6,0-.9.3-.2.1-.4.3-.6.3h0s0,0,0,0c0,0,0,0,0,0,0,0,0,.1,0,.2h0c0,0,0,0,0,0-.2.2-.3.5-.5.8-.3.6-.6,1.2-1.2,1.1-.7.2-1.3-.3-1.6-1.2,0-.3-.2-.4-.3-.5-.2,0-.5.3-.5.7,0,.6-.4.9-.7.7,0,0-.4-.4-.3-1.2,0-.4.1-.8.2-1.1.2-.5.3-.9,0-1.5-.3-.7-.9-1.2-1.3-1.3h0s0-.2,0-.2c-.4-.7-.9-1.7-.6-2.6,0-.6.2-1,.4-1.4.2-.3.3-.6.4-1.1h0c0-.2.3-.9.2-1.3,0-.2-.1-.3-.3-.5,0,0-.2-.2-.3-.3-.5-.5-1-1-1.3-.8,0,.3-.2.4-.3.4-.2,0-.4-.3-.7-.7-.1-.2-.3-.4-.4-.5l-.5-.2h0c-.2,0-.4-.1-.7-.3-.2-.1-.5-.3-.6-.2h0c-.9-.4-1.7-.3-2.3.2h0c-.9.2-1.6.2-2.2,0h0c-.6-.8-1.3-.8-2-.7h0c-.5-.2-.8-.9-1.1-1.5-.2-.5-.4-.9-.7-1.2-.8-1-1.6-1.1-2.1-1-1.6.3-3.2-.1-4.8-1.3,0,0-.2-.1-.3-.2-.7-.5-1.4-1-1.8-.2-.5.9-1,1.9-.8,3.1.9,1.3,1.4,3.4.9,4.5-.5,1.4-1.3,2.2-2.1,2.9l-.2.2c-1,.2-2.1.4-3.2-.5v-.2c-.1-.3-.2-.6-.4-.7-.2-.2-.5-.3-.8-.2h0c-.3,0-.7,0-1-.1-.4-.1-.7-.3-1.1,0-.1,0-.2,0-.3,0-.3.1-.7.2-1-.1-.1-.2-.3-.4-.3-.7-.2-.1-.3-.3-.4-.5-.1,0-.3,0-.4,0-.2,0-.5,0-.6.2h0c-.8.5-1.7.4-2.6.3-.5,0-1-.1-1.5,0-.3.2-.6-.1-.8-.3-.3-.3-.4-.4-.6-.2-.6.2-1.2,0-1.8-.2-.1,0-.2,0-.3-.1-.5-.2-.6.3-.9.9-.1.4-.3.8-.6,1-.3.4-.6.7-1,.9-.3.2-.5.5-.8.7h0c-.5.2-1.2.3-1.8.2h-.1c-.2-.6-.5-1-.8-1.1-.1,0-.3,0-.5.2h0c-.2,0-.4,0-.5,0-.4-.1-.6-.2-.7.2-.1.5-.5.4-.8.3-.2,0-.4-.2-.6,0h0c-.4.1-.7.7-1,1.2-.5,1.5-.3,3.6,0,5.7v.2s0,0,0,0c0,0,0,.2,0,.5,0,.1,0,.3,0,.4,0,0,0,0,0,0,.1.2,0,.5,0,.7,0,.4,0,.7,0,1.1,0,.5,0,.9,0,1.3v.3c-.2,0-.2.3-.1.8,0,.4.2,1,0,1.3,0,.1,0,.2-.2.3,0,0-.1.1-.1.2s0,0,0,.1h0c0,0,0,.1,0,.1.4.4.6,1.3.6,1.9,0,.4,0,.6.4.9.2.2.5.6.4,1.1,0,0,0,.2,0,.3,0,.3,0,.6,0,.9,0,0,0,0,0,.1.2.2.4.4.6.7.2.6,0,.9-.2,1.2-.1.2-.3.5-.2.7.1.2.2.4.3.4.1,0,.3-.2.4-.4,0-.1.1-.2.2-.3,0-.3,0-.6.2-.8.2-.2.4-.2.7,0,.9.6,1.4.5,1.6-.2h0c.2-.4.3-.8.4-1.3,0-.2,0-.4,0-.5h.2c.2.2.4,0,.6-.4.2-.2.3-.4.5-.5,1-.4,2,0,2.9,1,.8.6,1.7.9,2.7.8.2,0,.3,0,.4-.2,0-.2,0-.7-.1-1.5-.1-.4-.1-.7,0-.8,0-.3.3-.2.5-.2.2,0,.4,0,.5-.1.4-.5.9-.6,1.3-.4.3.2.5.5.7.9.3.8.4.7.6.6.1,0,.2-.2.4-.2h0s0,0,0,0c.2.2.5.3.7.3.2,0,.4-.3.4-.7h0c0,0,0,0,0,0,.1,0,.3-.1.4,0,.2.2.2.5.2.8,0,.1,0,.3,0,.4,0,0,0,0,0,0h0s0,0,0,0c.1,0,.3,0,.5-.1.3-.1.7-.3,1,.2v.3c-.1.2-.2.5-.1.7,0,.1.2.2.5.2.1,0,.3,0,.4.2.2.3.2.6.3,1,0,.3,0,.6.2.7.2,0,.4.1.6.3.3.2.6.3.7,0h0s0,0,0,0c.2,0,.4.2.5.5.1.4.2,1,0,1.2,0,0-.2.2-.5-.2-.2,0-.3,0-.3.2,0,.1,0,.3.3.5.2,0,.4.1.4.4,0,.3,0,.4-.2.6,0,0-.2.2-.2.3,0,0,0,0,0,0,.4,0,.5.3.6.6,0,.2,0,.4.3.5,0,0,.2,0,.3.2.1.2,0,.4-.1.8,0,0-.1.2-.1.3,0,0,0,0,0,0,.2,0,.4-.2.6-.4.3-.2.6-.4.9-.5l.2.3c0,.2,0,.6.1.9,0,.4.2.9,0,1.2,0,0,0,0,0,0,.1,0,.2.4.3,1h0c0,.1,0,.2,0,.2-.2.2-.4.6-.4.8,0,0,.1,0,.2,0,.4-.2.7,0,.8.2,0,0,0,0,0,0h.2c0,.3,0,.4.1.4.1.1.4,0,.6,0,.2,0,.4-.1.6,0,.2,0,.4,0,.6,0,.3,0,.5.2.6-.2.2-.5.5-.3.7-.2.2.1.3.2.3-.3,0-.7.5-.7.8-.7.1,0,.3,0,.4,0-.2-.4-.5-.6-.8-.8-.2,0-.3-.2-.5-.3-.4-.3-.5-.4-.5-.6v-.2c.2-.1.7.2.9.5.2.1.4,0,.4,0,0,0,0,0,0-.1,0,0,0-.1-.3-.2-.3-.1-.4-.3-.5-.6,0-.2,0-.3.2-.4.2,0,.6,0,.8.6.3.2.4.1.5,0,0,0,0-.1-.2-.2-.3,0-.6-.2-.6-.6,0-.4.5-.4.7-.4v.2c.3.7.9,1,1.3,1.2.3,0,.3.6.4.8,0,0,0-.1,0-.2h0c.2-.2.1-.3,0-.8,0-.3-.1-.5-.2-.8-.1-.2-.3-.4-.5-.6-.3-.3-.5-.6-.7-1,0,0,0,0-.1,0-.5-.4-.9-.7-1-1.2,0-.2,0-.4.1-.6h0s0,0,0,0c0,0,.1,0,.2.2.1.2.4.6.6.6,0,0,0,0,.1-.1-.3-.3-.4-.6-.5-1,0-.3,0-.5.2-.6-.3,0-.6-.1-.8-.3-.4,0-1-.4-1.4-.8-.2,0-.9,0-1.1-.5,0-.1-.1-.3,0-.5-.2-.4-.6-1.4-.4-1.7,0-.2.2-.1.5.1.1,0,.2.2.3.4.4.5.7.7.9.4h0s.1-.1.1-.1c.2-.1.3-.3.4-.3,0,0,0-.1-.3-.5h0c0-.3-.2-.4-.4-.4-.1,0-.3,0-.4-.2,0-.1-.1-.3-.1-.5v-.2c0,0,.1-.1.2-.2.2-.2.4-.4.6-.3.1,0,.2.2.3.4.4,0,.4,0,.4,0,0,0,0-.1-.3-.6-.5-.5-.9-1.5-1.2-2.3v-.2c0-.2.2-.1.4,0,.2,0,.5.2.6,0,0,0,0-.2,0-.4h0c0-.2,0-.2.1-.3s0,0,0,0c.2,0,.3.3.6.6.2.3.4.6.6.8,0-.6.2-.7.4-.7.3,0,.6.4.9.9v.2c0,.2,0,.5,0,.7.1.4.4.7.8,1,.3.1.5.5.5.9,0,.6-.1,1.3-.4,1.3h0s0,0,0,0c-.2,0-.3,0-.5.3-.2.2-.4.5-.9.1-.2,0-.4-.1-.6-.2-.6-.3-.9-.4-1.1.2h0c0,0,0,0,0,.1,0,0,.2,0,.3,0,.3,0,.5,0,.7.2.9.4,1.9.2,2.8-.6h0c.3,0,.6.5.9,1,.2.2.4.5.5.7v.4c-.3,0-.5.4-.5.5h0s0,0,.2,0c.4-.5.9,0,1.4.4.2.2.4.3.5.4h0c0,.1,0,.2.1.2,0,.1.2.2.2.3h0s0,0,0,0c.3.8.8,1.4,1.4,1.7.6.2.8.4.8.9,0,.1,0,.2,0,.4.1.1.2.2.3.4.1.3,0,.6,0,.9,0,.4,0,.6.1.7v.3c0,.3.1.5.3.9.1.3.3.6.2.9,0,.2,0,.3-.2.5,0,.3.1.4.4.5,0,0,.2,0,.2.2h0c.4,0,.6.3.9.6.2.3.4.5.6.6.3,0,.6.1.8.4,0,0,0,0,0,0,.2,0,.5.2.8.5.2.1.4.3.5.4l.4.2c.2,0,.4.2.5.3h0s0,0,0,0c0,0,.1.1.1.2,0,0,0,0,0,0h0s.2.1.2.1c.5.3,1,.7,1.4,1.1.3,0,.5,0,.8.2.3.2.6.3.8,0,.3-.4.6,0,.9.4.2.3.5.5.7.5.5.1,1.4,1,1.5,1.6v.2c-.1,0-.2,0-.2,0,0,0,0,0,0,0,.6.3,1.3,1.1,1.3,2.1.4.5.9.8,1.4,1,0-.8,0-1.4.2-1.9,0-.3.2-.3.3-.3.4,0,.9,1,1,1.4.3.4.4.7.4,1,0,0,0,.1,0,.2,0,0,0,.1,0,.2,0,0-.1.2-.2.3.2.2.3.2.5,0,.1,0,.3-.2.6-.1,0-.4.3-.6.6-.8.1-.1.3-.2.4-.4.1-.1.2-.2.3-.2.2,0,.3-.1.3-.6-.6-.6-1-1.1-1.1-1.6v-.2c.2,0,.2-.2.2-.4,0-.4-.3-1-.6-1.3-.7-.9-1.4-1.3-2-1.5h-.2c-.6-.3-1.4-.6-1.7-1.9-.6-1.3-1.4-2.2-2.2-2.8-.2-.1-.4-.3-.6-.5-.3-.3-.5-.5-.8-.5-.8-.2-1.5,0-2.1.4h0c-.2,0-.5,0-.6-.4-.1-.3,0-.6.1-1,0-.1,0-.3.1-.4-.4-.3-.8-.4-1.2-.4-.3,0-.7-.1-1-.3-.7-.3-1.4-.6-2-.9-.3-.1-.6-.3-.9-.4h0c-.2-.4-.4-.5-.6-.7-.3-.2-.6-.4-.9-1v-.2c0-.6-.2-1.3,0-1.4.1,0,.3,0,.5.3.3,0,.5.5.6.8.2.4.4.6.6.5.5-.2,1.1,0,1.4.6.3,0,.3-.3.4-.9,0-.3,0-.7.2-.9,0-.2,0-.5-.1-.7,0-.3,0-.5-.1-.7,0,0-.2-.1-.3-.1h0c0,0-.1,0-.2,0-.5-.2-1-.4-1.1-1.5-.2-.3-.3-.5-.3-.7,0-.4.3-.5.5-.6.1,0,.2-.1.3-.2.3-.2.2-.4,0-.9-.1-.4-.3-.9,0-1.2.1-.2.2-.5.2-.9,0-.6,0-1.2.6-1.2,0,0,0,0,0,0,.1,0,.3,0,.5.2.2.3.4.7.4,1.1,0,.3,0,.5-.3.6,0,.3,0,.5,0,.8,0,.2.1.4.1.6,0,.2-.2.3-.4.3-.1,0-.1,0-.1,0,0,0,.2.4.3.6.2.3.4.6.5.9.1.4.3.8.6,1.1.3.4.5.8.7,1.4.2.4.3.3.5.2.2-.2.4-.4.8.1.6.1.7.4.8.9,0,.2,0,.4.2.6.3.4.5.3.8,0,.2-.1.3-.3.5-.2v.4c0,.1,0,.2,0,.2,0,0,0,.1.2.1.2,0,.4,0,.4-.2h.1c.2,0,.4.3.6.6.2.4.5.7.7.7.3.1.6.1.9.1.5,0,.9,0,1.5.4.4.3.8.6,1.3,1,.7.5,1.4,1.1,2.1,1.7,1.3.3,2.6,1.9,3.7,4.2.8,1.5,2,1.9,2.8,1.9.8.3,1.3,0,1.5-.8.1-.2.2-.4.3-.6.3-.6.6-1.2,1.1-1.4.2-.6.4-1.1.7-1.5.3-.5.5-1.1.7-1.7h0c.2-.2.3-.3.5-.4.6-.5,1.3-.9,2.2-.2.6.5,1.1.5,1.4.1h0c.3,0,.5,0,.8.1.4.1.8.3,1-.2.7-.9.9-1.9.8-2.8-.3-.6-.4-1-.4-1.3,0,0-.1-.2-.2-.3,0-.2-.1-.4-.2-.5-.2-.4-.3-.8-.3-1.2,0-.2.1-.4.3-.5.2-.3.4-.6.6-.8.3-.4.6-.7.7-1.3h0c.2-.3.5-.5.8-.6.6-.3,1.1-.7,1.5-1.4.1-.2,0-.3,0-.6,0-.1-.2-.3-.2-.5,0-.2.1-.3.4-.4.2-.2.2-.6.3-1,0-.4,0-.8.3-1.1.3-.5.3-1.3.3-2.1,0-.2,0-.3,0-.5,0,0,0-.1-.1-.2-.4-.8-.8-1.5-1.3-1.6h0c-.2-.2-.3-.3-.3-.5,0-.4.2-.6.4-.9.1-.1.3-.3.3-.4.3-.6.3-1.3.4-2h0c0-.3,0-.6,0-.9,0-.3-.2-.5,0-.7,0-.2.2-.2.4-.2.6,0,1.5-.8,1.2-2.3h0c0-.7.2-1.1.4-1.3.2-.1.4-.1.6,0,.2,0,.3-.2.4-.4.2-.3.4-.5.9-.3.3-.1.7-.2,1.1-.3.6-.1,1.2-.3,1.7-.6.2-.9.7-1.2,1.2-1.5,0-.6.1-.9.2-1.1,0,0,0-.2,0-.2h0c0-.2.2-.3.3-.4M34.8,27.1c-.1.1-.2,0-.3,0,0-.2-.1-.2-.1-.2,0,0-.2,0-.3.2-.1.1-.2.2-.4.1,0,0-.1-.2-.2-.3h0c-.1-.2-.6-.4-.7-.2h0c-.5.4-.9.5-1.4.2-.2-.1-.4,0-.6,0-.2.1-.4.2-.6,0,0,0-.1-.2-.2-.4,0-.1,0-.1,0-.1,0,0-.2.1-.2.2-.1.2-.3.3-.4.3,0,.3-.2.3-.3.2-.2-.2-.2-.8-.2-1.1,0-.4.2-.5.5-.4.8-.3,1.7-.7,2.6-1.1l.2.2c0,.2,0,.3,0,.3.2.3.6.2.9.2,0,0,.1,0,.2,0,.2,0,.3,0,.5,0,.3,0,.7,0,1,0h.1c.3.8.1,1.6,0,1.8ZM60.1,28.9c.1.7,0,1.4-.5,1.5h0c-.3-.2-.4,0-.5.2-.2.3-.4.6-.8.2-.8-.7-1.5-.2-2.2.2-.2.1-.4.3-.6.4-.1,0-.3.2-.4.3-.3.3-.5.5-.8.3-.1,0-.2-.3-.3-.5h0c0-.3,0-.4,0-.6,0-.9.2-1.9-.2-2.6-.2-.1-.3-.3-.4-.5-.2-.5,0-1,.1-1.4,0-.1,0-.2,0-.3h0c0,0,0-.1.1-.1,0,0,0,0,0,0,.5-.1,1.1.3,1.6.7h.2c.5.2,1.1.5,1.6.7.7.3,1.4.7,2.1.5.4,0,.6.5.7,1ZM72.6,43.4c0,.2,0,.3.1.4v.2c0,.5-.3.8-.5,1-.1.1-.2.2-.3.4h-.1c-.2,0-.2,0-.2,0,0,0,0,.2,0,.3,0,.3.2.9,0,1h-.1c-.2-.5-.4-.9-.5-1.4-.1-.4-.2-.7-.4-1h0c-.2-.6-.2-1.2-.2-1.7,0-.4,0-.8-.1-1.2-.1-.7,0-1.2.1-1.4,0,0,0,0,.1,0,.1,0,.3,0,.5.3.2,0,.3,0,.4.2.1.2.1.4.1.5,0,0,0,.1,0,.1,0,0,0,0,.2,0s0,0,0,0l.2.3c0,.2,0,.2,0,.3,0,0,0,0,0,0,0,0,.2,0,.3.3,0,.1,0,.3,0,.5.3.2.3.6.3.8ZM71.9,37.7c0,.3-.1.7-.5.6-.6,0-.9.6-1.2,1.2,0,.1-.1.3-.2.4h-.2s-.2-.2-.2-.2c-.6-.6-1.3-1.3-1.6-2.4v-.2c.2-.6,0-1.4-.4-2.2,0-.2-.2-.5-.2-.7v-.2c-.1-.6-.2-1.6,0-1.9,0,0,.2-.1.4,0,.4.1.5-.2.6-.6,0-.2,0-.3.1-.5h0c.3,0,.9.2,1.2.8.2.4.3.8.3,1.2.2,1.6.5,2.8,1,3.5.4.2.7.7.7,1.1Z"/>
    </g>
    <g id="Background">
      <rect id="rect5538" class="st0" x="-268" y="0" width="154" height="78" transform="translate(-382 77.9) rotate(180)"/>
    </g>
    <g>
      <path class="st2" d="M-167.8,45.9c.1-.3,0-.7-.5-.9-.4-.6-.4-1.5-.1-2.7.2-.3.2-.6,0-.9-.2-.5-.8-.8-1.3-.8h-.1c-.1.1-.3.3-.4.4-.3.3-.5.5-.9.3-.2-.2-.4-.2-.5-.1-.4.1-.6.9-.7,1.3v.2c0,.2,0,.3,0,.5,0,.6.2,1.2-.3,1.6h0c0,1,.7,1.6,1.2,2.2l.2.2h.2c.1,0,.3-.1.4-.2.6-.4,1.2-.8,1.9-.6.5.1.8,0,.9-.3Z"/>
      <path class="st2" d="M-188.8,38.1h0c0,.3,0,.4.2.5.2.2.7,0,1.1,0,.2,0,.5-.1.6-.1.3,0,.6,0,.9-.1,1-.2,2.1-.4,2.9.3.4.4.7.2,1,0,.3-.2.5-.3.8,0h0c.5,0,1.1-.5,1.1-.9,0-.4-.1-.7-.6-.8-.9,0-1.7-.4-2.5-.8-.6-.3-1.2-.6-1.9-.7h-.2c-.5-.5-1.1-.9-1.8-.9s0,0-.1,0c0,0-.1,0-.2,0h0c0,0-.1,0-.2.2-.3.3-.7.6-.6,1,0,.2.1.3.3.5.3.6-.2,1.3-.6,1.9,0,.1-.2.2-.2.3ZM-187.2,34.3s0,0,0,0h0s0,0,0,0ZM-187.2,34.3s0,0,0,0h0s0,0,0,0h0Z"/>
      <path class="st2" d="M-213.4,31.2c.1.1.3,0,.5,0,.2,0,.3-.1.4,0,0,0,0,0,0,.2,0,0,.2.2.4.1.3-.1.8-.6.6-1.2h-.1c-.4-.3-.9-.3-1.3-.3-.2,0-.5,0-.7,0,0,0-.1,0-.2,0-.4,0-1,0-1.1-.3,0,0,0-.1,0-.2l-.2-.2c-1.3.1-2.5.2-3.7.3-.2-.1-.5,0-.7.2-.2.2-.3.7-.1.8.1.1.3,0,.5-.1.2,0,.4,0,.7-.2.1,0,.3-.1.4-.1,0,0,0,0,0,.1,0,.2,0,.2,0,.3.2.2.4.1.8,0,.3,0,.6,0,.8,0,.6.3,1.2.3,1.9.1h0c.2-.1.7,0,.8.2h0c0,.2,0,.3.1.3ZM-213.4,30.8s0,0,0,0c0,0,0,0,0,0h0Z"/>
      <path class="st2" d="M-129,88.3c.2,0,.5,0,.7-.3.2-.3.2-.6,0-.9h0c0,0,0,0-.1,0-.1,0-.3,0-.4.1-.1,0-.3.3-.3.4,0,.5.1.6.2.7Z"/>
      <path class="st2" d="M-127.9,90.2c-.3,0-.7,0-.9.4h0c0,.2-.1.3-.3.3-.2,0-.4-.1-.4-.3,0,0,0-.2.2-.3.3-.3.9-1.1.7-1.6,0,0-.1-.3-.4-.3h0c-.2.2-.5.2-.7.3-.4.1-.8.2-1.2.6,0,0-.2,0-.3,0,0,0,0-.2,0-.4,0,0,.2-.3.5-.2h.2c.2-.6-.2-.8-.4-1,0,0-.2-.2-.2-.2,0,0,0,0,.2-.2h0c0-.2.2-.3.3-.4.3-.3.6-.6.6-.9,0-.1-.1-.3-.3-.3-.8-.3-1.5-.2-1.8.2-.7-.3-1.5-.2-2.4.2-.6,0-.8-.1-.9-.2,0,0,.1-.1.4-.2.4-.2.6-.6.6-1,0-.4-.3-.6-.7-.7-.2-.1-.5-.1-.8-.1-.1,0-.4,0-.5,0,0,0,0,0,.1-.4.4-.7.5-1.3.1-1.8.4,0,.8,0,1.1,0,.7,0,1.4,0,2-.2.4,0,1.3-.5,1.4-.9,0-.1,0-.3-.1-.3h0c-.1,0-.3,0-.4,0-.3,0-.6,0-.7,0,0,0,0-.2,0-.4h0c0-.6.4-1,1.4-1.3.1,0,.2,0,.4,0,.6-.1,1.5-.3,1.4-.9h0c-.6-.5-1.3-.5-2-.5-.5,0-1.1,0-1.5-.2-1.1-.4-2.2-.7-3.2-.2,0,0,0-.1.1-.1.2-.3.4-.4.5-.6.4-.1,1,0,1.4,0,.1,0,.2,0,.4,0,.1,0,.3,0,.4,0,.4,0,.9,0,1.1-.2,0,0,.1-.2.1-.3.5,0,.6-.4.8-.6.1-.2.2-.4.5-.5.4,0,.7-.3,1-.5.2-.2.4-.3.7-.4.8-.3,1.1-.4,1.1-.6,0-.2-.2-.3-.8-.3-.2-.2-.3-.2-.5-.2-.3,0-.5.2-.7.4-.1.1-.3.2-.5.3-.3.2-.7.2-1,.3-.3,0-.6,0-.9.2-.2,0-.4-.1-.6-.3-.3-.2-.7-.5-1.1-.1-.2.2-.3.5-.4.7-.1.4-.2.5-.7.4h0c-.5.2-1.1.2-1.8-.2h-.2c0,.2-.4.2-.8,0-.3,0-.5-.1-.6,0,0,0,0,.2,0,.3-.2,0-.4,0-.6,0-.5,0-1,0-1.5.2-.3,0-.5,0-.8,0-.4,0-.8-.2-1.2,0-.4.2-.8,0-1.2,0-.5-.1-1.1-.2-1.6.2-.3.2-.5.2-.8.2-.3,0-.6,0-.8.3-.5,0-1.1.4-1.1.8,0,.1,0,.5.5.6h0c.6-.1,1.2,0,1.9,0-.4,0-.6.2-.7.3-.3.3-.7.5-1.1.7-.5.2-1,.4-1.3.9-.2.3-.2.6,0,1,.1.4.4.8.8,1,.9.3,2.2.6,3.1-.2.4,0,.6,0,.6,0,0,0,0,.3-.4.5h0c-.2,1,.9,1.5,1.4,1.7h0s0,0,0,0c.1,0,.2,0,0,.5,0,.3-.2.8.2,1.1.2.2.5.4.7.6.3.3.7.7,1.1.8h0s0,0,0,0c.8,0,1.4.5,1.6,1.2h0c.1.2.2.4.2.7,0,.4.1.8.8.9,0,0,.2.1.2.2.5.4.9.8,1.6.8.5.3,1,.2,1.5,0,.4-.1.7-.2,1.1-.1h0c-.2,0-.5,0-.7.2s-.4.1-.7.2c-.4,0-.7.2-.7.4,0,.2.2.3.6.5-.4,0-1,.2-1.1.5,0,.2-.3.3-.5.5-.4.3-.8.6-.7,1,0,.1-.1.2-.2.3-.2.3-.4.5-.4.8,0,.2.2.4.5.5h0c.9,0,1.8,0,2.7,0,.3,0,.5,0,.8,0,.2,0,.5,0,.7,0,.5,0,1.1-.1,1.5.1-.2.5-.7.7-1.3.9-.2,0-.4.2-.6.3,0,0-.2,0-.4.1-.5.2-1,.4-1.1.7,0,.2,0,.3.3.5h0c.9.2,1.7,0,2.6,0,.3,0,.6,0,.9-.1h0c.2-.1.5,0,.8.1.3.2.7.3,1,0,.2,0,.3-.2.3-.3,0-.2-.1-.4-.2-.6,0,0,0,0,0-.1,0,0,.2,0,.4,0,.3,0,.5,0,.6-.2,0-.2-.1-.4-.3-.7,0,0-.2-.2-.3-.3.2,0,.4,0,.6,0,.4,0,.9.2,1.3-.4v-.2c-.5-.2-.7-.5-.7-.6,0,0,.1-.1.5-.2v-.3c-.3-.5,0-.7.4-1.1,0,0,.2-.2.3-.3.3-.3.3-.5.3-.7,0-.2-.2-.3-.5-.4Z"/>
      <path class="st2" d="M-115.6,77.8c.2-.1.3-.3.3-.5,0-.3-.4-.4-.5-.4h-.1c-.3.1-.5.1-.7,0-.1-.1-.2-.4,0-.8l-.2-.2h-.3c-.8,0-1.6,0-2.4.4-.7,0-1.3.2-1.9.6-1.1.6-2.1.9-3.2.8h0c-.5.2-1,.4-1.7.3h-.2c-.1.2-.2.4-.3.6-.2.4-.4.8-.7,1h0c-.1.7,0,1.2.2,1.7,0,.2.1.4.2.5,0,.2.2.5.3.7,0,.1.2.4.2.4,0,0,0,0-.4,0h0s0,0,0,0c-.2,0-.7,0-1,.3-.3.1-.5.3-.6.6-.1.4,0,.8.2,1.1,0,.7.5,1.3,1,1.7h.1c.3,0,.6,0,1,0,.4,0,.9.1,1.3,0,.2,0,.3,0,.5-.1.3,0,.7-.1.9-.3,0,0,.2.1.2.1.2,0,.4.2.5.4h0c.5.2,1.3,0,1.8-.3h.1c.3-.8.5-1.1,1.2-1.2v-.2c0-.3-.3-.2-.8-.2-.2,0-.5,0-.7,0,0-.2.4-.2.6-.3.3,0,.5-.1.6-.4,0,0,0-.2,0-.2.2,0,.3,0,.5,0,.6,0,1.1.2,1.7,0,0,0,.2,0,.3,0,.5.1,1.2.3,1.6-.3.3-.3.3-.5.3-.7,0-.2-.4-.2-.7-.2-.2,0-.3,0-.5,0,0-.1,0-.4.2-.5.1,0,.3-.1.4-.1v-.2s.2,0,.2,0c0,0,0,0,0,0,0-.2.2-.4,0-.6,0-.1-.3-.2-.5-.2h0c-.3.1-.7,0-1.1,0-.2,0-.5,0-.7,0h-.2c-.1,0-.4,0-.6,0,0,0,0,0,0,0,.5.1.9-.1,1.2-.4.2-.2.2-.4.2-.6.2-.2.3-.3.3-.5,0,0-.1-.1-.2-.1.3,0,.6-.1.7-.4h0c0-.2,0-.3.1-.4.2-.2.5-.1.9-.1.2,0,.3,0,.5,0,.4,0,.6-.1.6-.2,0,0,0-.1,0-.2-.1-.1-.4-.2-.8-.2ZM-118.4,79.5c.1,0,.3,0,.6,0,0,0-.1,0-.2,0,0,0-.2,0-.3,0ZM-116,82.2h0c0-.1,0-.1,0-.1,0,0,0,0,0,0h-.1Z"/>
      <path class="st2" d="M-177.1,86.6h-.2c-.6,0-1,0-1.3-.6h-.2c-.3,0-.5.2-.7.3-.1.1-.3.2-.4.3h0c0,.3,0,.5.2.6,0,0,.2.1.2.2s0,0-.4.2h0c-.2.5-.2,1.1,0,1.3.1.1.4.3.9.1.3,0,.3-.4.4-.7,0-.2.1-.4.2-.4,0,0,.1,0,.3.1.2.3.3.5.5.5.3,0,.6,0,.9-.3,0,0,.2-.1.3-.2.2,0,.3-.1.3-.2.2-.3,0-.8-.2-1,0-.2-.4-.6-.6-.6Z"/>
      <path class="st2" d="M-169,49.4c0-.1.2-.2.1-.3,0-.2-.2-.2-.3-.2,0,0,0,0,0,0,0,0,0,0,.2-.2v-.3c-.1,0-.2,0-.2,0-.2,0-.3,0-.3,0,0,0,0,0,0-.1,0-.1,0-.3,0-.4,0-.1-.2-.2-.5-.2-.2-.2-.3-.3-.5-.3s-.1,0-.2,0c-.3,0-.6.5-.6,1,0,.3-.1.6-.2.8-.1.4-.3.7-.2,1.2h0c.1.3.1.6.1.8,0,.3,0,.6.2,1h.2c.4,0,.4-.4.4-.6,0,0,0-.2,0-.2,0,0,0,0,.3,0h.2c.1,0,.3-.2.5-.2.4-.1.8-.3,1.1-.6v-.2c0-.1,0-.2,0-.3,0-.2.1-.4-.2-.6Z"/>
      <path class="st2" d="M-324.5,7.3c.2.2.5.3.9.3.2.4.2.8.2,1.2,0,.4,0,.9.3,1.3h0c.4.4,1,.6,1.5.8.5.2,1,.3,1.3.6.5.5.9,1.2,1.3,1.8.3.5.7,1,1.1,1.5-.7.8-1.2,1.5-1.9,2.1-.8.6-.9,1.4-.5,2h0c.4.4,1,.5,1.6.6.3,0,.6.1.8.2.3.5.4,1.1.4,1.7,0,.3,0,.7.1,1,0,.2,0,.4.1.6.2.6.3,1.1-.2,1.5-.5.4-.5.7-.4.9,0,.3.4.5,1,.6.2.3.2.6.1.9,0,.2-.2.3-.5.4h0c-.5.6-.7,1.3-1,2,0,.3-.2.5-.3.8,0,.2,0,.3-.1.5-.2.5-.3.9,0,1.5,0,.3,0,.6,0,.9,0,.5,0,1,.3,1.5h.1c.2,0,.4,0,.6,0,.7,0,1.3-.2,1.7.4h0c.4.3.8.6,1.2.9,1,.8,2.1,1.7,3.5,1.8.8,0,1.6.2,2.3.6.2,0,.4.1.6.2.5.4,1.1.9,1.9.8.7.2,1.4,0,2.1-.5.3,0,.6,0,.8,0,.9,0,1.8,0,2.6-.7.6-.7,1.4-1.5,2.5-1.3l.2-.2h0c-.1-.9-.2-1.5.4-1.7.5,0,1-.1,1.6-.1.8,0,1.7-.1,2.5-.3,1.5-.4,2.8-.4,4,0,1.3.2,2.2.8,2.6,1.8h.1c.4.2.7.2,1.1.3.8,0,1.5.2,2.1.6.4.3.3.7.2,1.2,0,.3-.1.6,0,.9h0c.2.4.5.5.9.6s.5.1.6.3h0c.2.2.7.5.7.7,0,0-.1.1-.4.2h0c-.1.1-.2.2-.2.3,0,.2.2.4.3.5,0,0,0,0,0,0,0,0-.2,0-.3,0h0c-.2,0-.4.2-.4.4,0,.2.3.4.6.6.2.1.5.2.5.3h0c.5.4.9.1,1.3-.1.2-.1.4-.2.6-.3.4,0,.6-.3.8-.5.3-.3.5-.5.8-.5s0,0,0,0h0c0,0,.1,0,.2-.1,0,0,0,0,0,0,0,0,0,0,0,0,0,0,0,0,0,.1,0,.2,0,.3.2.4,0,0,.2.2.1.2,0,0,0,0,0,0h0c0,.2,0,.3,0,.4.1.2.4.2.6.2.3,0,.7,0,.7.3h0c.2.2.6.4.7.6,0,0-.1,0-.2,0h-.1c-.1,0-.4.2-.4.5,0,.3.4.5.8.7,0,0,.2,0,.3.1.4.1.5.4.5.6,0,.2-.1.3-.3.4v.2c0,.5.4.6.8.6.1,0,.3,0,.3,0,0,0,0,0,0,.1v.2c.2.1.3.2.4.3-.4.3-.9.4-1.4.1-.5-.5-1.2-.7-1.8-.6-.2-.2-.5-.3-.8-.3s-.4,0-.5.1c-.1,0-.4.3-.2.8h0c0,0,0,0,0,0,0,0,.2,0,.3.1.4.2.8.3.9.7-.4.2-.5.5-.5.7,0,.2.4.4.9.3.4.1,1,.3,1.1.6,0,0,0,.1,0,.2-.1.1-.2.4-.1.6.1.2.4.2.7.2.2,0,.5,0,.5.1h0c.1,0,.2.1.4.2.4.2.9.5,1.3,0,.2.2.6.2.9.2.3,0,.7-.2.8-.5.3,0,.9,0,.9,0,0,0,0,0-.1.1v.3c.4.2.7.3,1.1.4.4,0,.8.2,1.1.4.2.4.7.4,1,.4.3,0,.5,0,.7.2h0s0,0,0,0c.3,0,.5,0,.8,0,.8,0,1.6-.1,2.2.4h0c0,0,0,0,0,0,.4-.1.8,0,1.2.2.4.2.7.3,1.2.3.1,0,.3,0,.4,0,.4,0,.7.1,1,0,.2-.1.2-.3.3-.6h0c0,0,0-.1,0-.1-.3-.3-.9-.5-1.3-.7h-.1s0,0,0,0c-.7,0-2-.3-2.4-1.3,0-.2-.1-.4-.2-.6-.3-.7-.5-1.5-.2-2.1.2-.2.3-.4.3-.6.1,0,.3-.1.4-.2.9-.5,1.9-.8,2.9-1,.6,0,1.1,0,1.7.1.7.1,1.5.3,2.2,0,.8-.3,1.6-.2,2.5,0,.5,0,1,.2,1.5.1.5-.1.9.1,1.3.4.4.2.7.5,1.2.5h0s0,0,0,0c.3-.2.5-.2.8-.1.3,0,.5.3.6.6.2.7.7.6,1.1.5.2,0,.5-.1.7,0h0c.7,0,1.1.8,1.2,1.1h.2c.7-.5,1.7-.3,2.5-.2,1.9.4,4.1,0,6.5-1.3h.2c.6-.3,1.1-.5,1.3-1,.8-.4,1.8-.1,2.7.2h0s0,0,0,0c.8-.2,1.8,0,2.6,0,.2.1.5.1.7,0h0c.4.3.8.4,1.2.5.4,0,.8.2,1.1.4h0c.4,0,.5.3.6.7,0,.2.1.5.3.7.2.5.6,1.2,1.2,1.3,0,.2-.2.3-.5.5-.3.2-.7.3-.6.8,0,.8-.3,1.3-.7,1.4-.2-.1-.5,0-.7,0-.3.2-.4.6-.4.8,0,0,0,0,0,0h0c0,.2,0,.4,0,.6,0,.6-.2,1.2-.5,1.7-.4.7-1,1-1.8.9h0c-.3.2-.9.8-.9,1.2,0,.1,0,.3.3.5,0,0,0,0,0,0,0,0,0,0,0,.1,0,.3,0,.5-.2.6-1,0-1.8.8-2.4,1.4,0,0-.2.2-.3.3-.3.5-.9.8-1.6.8h0c-.2,0-.5,0-.8.1-.4,0-.9,0-1.2.4-.2,0-.4-.3-.4-.5,0-.2.2-.3.5-.4v-.2c-.5-1-1.7-.9-2.6-.8h-.1c-.2,0-.5,0-.7,0-.6,0-1,0-1.2-.3,0,0,0-.1,0-.2,0-.1.4-.2.7-.2.3,0,.7-.1.8-.3.1,0,.3-.1.5-.2.4-.2.9-.4,1-.7,0,0,0-.2,0-.4h0c0,0-.1,0-.1,0-.7.2-1.4,0-2.2-.3-.4-.3-.4-.8,0-1.6v-.2c0,0-.3,0-.3,0-.4-.1-.9-.2-1.3-.2s-.9.1-1.2.6c-.3.4-.8.4-1.3.4-.5,0-1,0-1.4.4-.3.4-.8.3-1.3.2-.3,0-.6-.1-.8,0-.8,0-1.3.5-1.6,1.1v.2c1,.3,2.1.2,3.3-.1.3-.1.8,0,1,0,0,0,.1.1,0,.4h0c0,.1,0,.2,0,.2.4.4.9.6,1.5.8.3.1.6.3.9.5.4.1.6.2.7.3,0,0-.2,0-.6,0-.3,0-.6,0-.9,0-.6,0-1.4-.1-1.8.5h0c0,.3-.1.4-.2.4,0,0-.2,0-.3-.1-.2-.1-.6-.3-1,0-.7.6-1.6.6-2.6.7-.6,0-1.3.1-1.9.3h0s0,0,0,0c-.4.5-.9.5-1.5.5-.2,0-.4,0-.6,0-.3,0-.5,0-.6,0-.2.2-.3.5-.3.9,0,.1,0,.3,0,.4-.1,0-.3,0-.5.1-.4,0-.9.1-1.1.6h0c-.7,0-1.4,0-2.1-.1h0s0,0,0,0c-.2,0-.4.2-.6.5-.2.4-.3.8-.2,1.2,0,.3.2.6.4.7,0,0,.2.2.2.3,0,0,0,0,0,.1-.4,0-.7,0-.7.2,0,.2.1.3.7.6,0,0-.2,0-.3.1-.4.1-.9.3-.9.8h0c0,0,0,.1,0,.1.1.1.1.3.2.4,0,.1,0,.3.2.4.1,0,.3,0,.6-.1.3,0,.5.1.7.3.2.2.5.4.9.3.3.2.6.2.9.3.2,0,.5,0,.7.2h0s0,0,0,0c.2,0,.5,0,.7.2.3.2.7.4,1,0,.4,0,.9.3,1.3.7,0,.2.2.4.4.5.3.1.7.1,1.1,0,.3,0,.5,0,.8-.2.4-.1.6-.2.8,0h0c0,0,0,0,0,0,.2,0,.5,0,.7.2.3.2.6.3,1,.2h0c.2-.2.5-.2.7-.1.2,0,.4.3.5.5,0,.3,0,1.1.5,1.4,0,0,.2.1.3.1,0,.1,0,.2.1.3.2.2.4.1.7,0,.2,0,.5,0,.6,0h0c0,0,0,0,0,0,.3,0,.5,0,.7,0,.2.1.4.4.5.8,0,0-.2.1-.3.2-.2,0-.4.2-.4.3,0,.2.2.3.5.5.2.2.4.4.6.6.3.3.5.5.8.8h0c0,0,0,0,0,0,.3-.2.6-.1,1,0,.4,0,.8,0,1.2-.2.2-.2.5,0,.8,0,.3.1.7.2.9,0h0c0-.2.2-.8,1.6-.5,0,0,0,.2.2.3,0,0,.1.2.2.3,0,.2,0,.4,0,.5,0,.3,0,.6.4.9h0c.2,0,.3.2.3.3,0,.1,0,.3-.1.3-.1,0-.3.1-.4,0-.9-.3-1.6-.3-2.2,0h0c0,.1-.3.2-.5.3-.4.2-.6.3-.6.5,0,.2.2.3.5.4.3.1.3.2.3.3,0,.3.2.5.8.5.2,0,.4,0,.6,0,.1,0,.4,0,.4,0,0,0,0,0-.1.3h0c0,0,0,.2,0,.2.2.4.6.5.9.6.4.1.7.2.7.5h0c0,0,0,.1,0,.1.3.1.3.3.3.4,0,.1,0,.2.1.3,0,0,.2,0,.3,0,.4.3.5.4.5.5,0,0-.1.2-.3.3h0s0,.1,0,.1c0,.2,0,.4.2.6.1.3.2.5,0,.8v.3c.3,0,.6.2.9.3.2.1.5.3.8.4.6.1,1.2.2,1.9,0,.3-.2.8-.2.9-.1,0,0,0,.1,0,.2,0,.1,0,.2,0,.3.3.3,1.3.3,1.6.2.2-.1.3,0,.5.1.2.2.6.4,1,.1.1,0,.3,0,.4,0,0,0,0,0,0,0h0c0,.6.2.9.4,1.2,0,0,.1.2.2.3.1.4.5.5.8.6,0,0,0,0,0,0,0,.2-.1.3-.2.4,0,.2-.2.3-.3.6v.2c.4,0,.6.2.8.3.1.1.3.3.6.3-.2.3-.5.6-.8.6h0c-.1,0-.2.1-.2.2,0,.2.2.5.6.9,0,0,0,0,.1.1,0,.5,0,1,.2,1.6-.1.2-.3.3-.5.4-.3.2-.6.4-.8.8,0,0-.2,0-.3,0-.3,0-.5.2-.6.4,0,.2.2.3.5.4h.1c0,0,0,0,0,0,.3-.5.9-.4,1.5-.3.3,0,.7,0,1,0h.1c1,.2,2,.4,3.1.4.3,0,.5,0,.8,0,.4,0,.7,0,1,0h0s0,0,0,0c.2-.2.4-.1.8,0,.3,0,.8.2,1-.1.5,0,1,0,1.6-.3.3-.2.8-.3,1.3-.3.2,0,.3,0,.5,0h0c.4-.3.4-.6.4-1s0-.2,0-.3h0c0,0,0-.1,0-.1-.2-.3-.5-.4-.7-.4,0,0-.2,0-.2,0,0,0,0-.2,0-.6h0c0,0,0-.1,0-.1-.2-.2-.8-.6-1.3-.5-.2,0-.4.1-.6.3-.2.1-.3.1-.3,0-.1-.1,0-.6.2-.9.5-.4.3-1.1.2-1.5h0c0-.3,0-.5,0-.7.2-.3.6-.4.9-.5.5-.2,1.3-.2,1.8,0,.3.2.4.4.5.7h0s0,0,0,0c.2.2.4.3.7.4.4.2.7.3.8.6h.2c.4.1.8,0,1.2,0,.4,0,.7-.2,1.1-.2h0c.1,0,1.3-.6,1.3-1.3h0s0,0,0,0c-.1-.3,0-.4.4-.6.3-.1.6-.3.7-.7,0-.1,0-.2,0-.3,0-.5.1-.9-.1-1.2,0,0,0,0,0,0h0c0-.8-.1-1.5-.6-2,0-.1.1-.2,0-.3,0-.1-.3-.1-.4-.1-.2,0-.4,0-.5,0h0s0,0,0,0c-.6-.2-1.2-.4-1.7-.4s0,0,0,0c-.7,0-1.1,0-1.6-.3-.1,0-.1,0-.1-.1,0,0,0-.2.2-.3.1-.2.3-.5.2-.8,2.2,0,4.4-.1,6.5,0,.6.1,1.2,0,1.7-.3,0,0-.2,0-.2.1v.3c.3,0,.5-.1.7-.2.8-.3,1.6-.6,2.5-.4,0,0,.2,0,.3.3.2.2.3.4.3.5-.8-.3-.8-.3-.9-.1,0,0,0,.1.1.2h0s0,0,0,0c.1,0,.4.2,1,.4,1.3.2,2.6-.1,3.9-.4h.4c.6-.1,1.1-.4,1.6-.7.4-.2.7-.4,1.1-.5.8,0,1.5-.2,2.3-.3.4,0,.9-.2,1.3-.2.2,0,.4,0,.5-.1h0c.5.2.6,0,.7,0,0,0,0,0,0,0,0,0,.2.1.4.1.1,0,.2.1.3.2,0,0,.2,0,.2,0h.1c0,0,.1,0,.2,0,.2.3.5.2.8.2.3,0,.6,0,.7.2.6.5,1,.6,1.7.6l.5-.2c.9-.3,1.7-.6,2.6-.7h.1c.2-.6.5-.5.9-.4.2,0,.4,0,.6,0,.2,0,.3,0,.4,0s0,0,0,0c0,0-.2.2-.6.3h-.1c0,.3-.2.5,0,.7.2.2.5.2.9.1.2,0,.5,0,.6,0,.3.1.6.2.8.2.3,0,.5,0,.7.2h.2s0,0,0,0c0,0,0,0,0,0,0,.2-.1.5,0,.7,0,.1.3.2.5.3.3.2.6.4.9.4h0c0,0,0,0,0,0,0,0,0,0,0,0-.1.1-.3.3-.2.5,0,.3-.1.4-.4.7-.1,0-.3.2-.3.4-.6,0-1.1.4-1.4,1.1h0c0,.3,0,.4,0,.4,0,0-.6,0-.9-.2h0c-.3,0-.6.2-.8.5-.2.3-.2.6,0,.8,0,.1.3.2.6.2.4,0,.8,0,1,.2.1.1.2.3.1.6v.2c.2.1.5.2.8.2,0,0,0,0,0,0-.3,0-.6,0-.9.2-.3.2-.5.6-.5,1h0c.1.2,0,.6-.1.8,0,.2-.2.3,0,.4.1.1.3,0,.5-.2.7,0,1.6,0,2.2-.8.5-.6,1.2-.7,2-.8.2,0,.4,0,.5,0,.7.3,1.2-.4,1.6-.9h0c0,0,0-.3,0-.3h0c-.5-.5-.9-.7-1.6-.2h0c-.4.7-.7,1-1.3.8h-.2c0,0-.2,0-.3,0,0,0,0,0,0,0,.2-.1.2-.4.2-.7,0-.2,0-.4,0-.4,0,0,0,0,0,0,.2.3.5.5.8.5.3,0,.6-.3.8-.7.1,0,.3,0,.5.1.3,0,.6.2.8,0,.1,0,.2-.3.2-.5.3-.4,0-.8-.2-1-.1-.1-.2-.3-.2-.4,0,0,0,0,.2-.1.4-.2.5-.4.5-.6,0-.2,0-.3-.3-.4-.2-.1-.5-.1-.7,0-.5-.2-.7-.8-.6-1.4h0c0,0,0-.1,0-.1.1-.2-.1-.5-.2-.6h0c-.2-.2-.6-.6-.6-.7,0,0,0,0,.4-.1.4-.1.6-.2.5-.3,0-.2-.2-.2-.5-.2,0,0-.2,0-.3,0h0c-.1-.3-.1-.3,0-.4,0-.1,0-.3-.2-.6.3,0,.6,0,.8,0h.1c.5-.1.5-.6.4-.8,0,0,0,0,0-.1,0,0,.1,0,.3.2l.2-.2s0-.1.1-.2c0,0,.1,0,.1-.1,0,0,0,0,0,.3h0c.2.7.8.6,1.3.5.2,0,.4,0,.6,0,.4,0,1,0,1.3-.4.1-.2.2-.4.1-.6,0,0,0,0,0,0,.2.2.5.4.8.3.4-.1.8-.1,1.2-.1.6,0,1.1,0,1.7-.3.3,0,.6-.1.8-.4.2-.3.3-.7.2-1.1h-.2c-.1-.1-.2-.1-.3-.1-.2,0-.2,0-.2,0,0,0,0,0,0,0,0-.2,0-.4-.3-.6h0s0,0,0,0c-.2,0-.2,0-.3,0,0,0,.2-.2.8-.6.2,0,.4,0,.6.1.2,0,.5,0,.5.1,0,0,0,0,0,.2h0s0,0,0,0c0,0-.1.2-.2.2-.2.1-.3.3-.3.5,0,.2.2.3.6.5.4,0,.8,0,1.1-.2.3-.2.5-.5.5-.8.3-1,1.1-1.6,2-2.1.5-.2.7-.3.7-.5,0-.2-.2-.4-.5-.6,0,0,0,0,.1,0,.1,0,.3,0,.5,0,.9.3,1.7-.1,2.4-.5.1,0,.2-.1.3-.2h0c.3-.1.6-.2.9-.2.4,0,.8,0,1.2-.3.9-.2.8-1.2.7-1.8,0,0,0-.2,0-.2.5-.5,1.2-.7,1.9-.8.3,0,.6-.1.9-.2.8-.3,1.3-.6,1.3-.9,0-.1,0-.3-.3-.4h0c.3-.1.7-.2.9-.2.3,0,.6,0,.9.1.4,0,.9.1,1.4.1h0c.2-.1.4-.2.5,0,.2.1.3.5.3.8h.2c.2,0,.6,0,.9.1.4,0,.8.1.9-.2h0c0-.5-.3-.8-.6-1-.2-.2-.4-.4-.4-.6.2-.4,0-.7,0-.9,0,0,0-.2,0-.2,0,0,0,0,.3,0,.5.1.9.2,1.6,0,.3.2.6,0,.9,0,.4-.1.6-.2.8.1.4.7,1.2.7,1.9.5h0c.3-.3.9-.6,1.3-.3h.2c.3,0,.7-.2,1.1-.3.3,0,.6-.1.9-.2.1,0,.4-.3.3-.5,0-.2-.5-.3-.9-.3,0,0,.1-.1.1-.2,0-.1-.1-.1-.2-.2,0,0-.1,0-.2-.1.4,0,.7-.1.8-.3,0-.2-.2-.3-.6-.3-.2-.5-.6-.4-1-.3-.3,0-.5,0-.7,0h-.1c-.7-.2-1.5-.4-2.3-.7-.3-.4-.7-.3-1-.2-.2,0-.4,0-.5,0,.1-.2.2-.3.2-.5,0-.3-.5-.4-.9-.5-.2,0-.3,0-.4-.1,0-.1,0-.2,0-.4,0-.3,0-.7-.6-1-.2-.5-.7-.5-1-.6-.3,0-.5-.1-.7-.3-.5-.4-.4-.7-.1-1.2,0-.1.1-.3.2-.4v-.2c-.2-.1-.3-.2-.4-.4h0c.3-.2.4-1.1.5-1.9h0c0-.1.1-.3,0-.4,0,0-.1-.1-.2-.2,0,0,0,0,0,0h0c0-.1.5-2.2.5-2.2,0-.6.3-1.2,1.1-1.4h0s0,0,0,0h.1c0,0,.2,0,.2,0,.6,0,1.2,0,1.6.4.6.4,1.2.2,1.7,0,.2,0,.4-.2.6-.2.9.2,1.8.2,2.8.2,1.4,0,2.7,0,3.9.6h0c.6.1,1.1,0,1.6-.2.5-.2,1-.3,1.5-.2.5,0,.9.1,1.4.3.8.3,1.6.5,2.4,0h0c0-.4.1-.6.3-.7.2-.1.5-.2.9-.1.6,0,1.4-.2,1.7-.6.2-.2.2-.5.2-.8h-.1c-.7-.2-1.1-.5-1.4-1.1h0c-.1-.2,0-.3.1-.6.2-.3.4-.7.2-1h0c.3-.4.1-1,0-1.6,0-.1,0-.3-.1-.4h0c-.3-.5-.1-1,.1-1.5.1-.3.2-.5.3-.8,0-.2,0-.3,0-.5,0-.4.1-.9.4-1.3h0c0-.3.2-.5.4-.6.3-.2.6-.5.4-.9,0-.1,0-.4.2-.6.1-.3.3-.6.1-.9,0-.1-.2-.2-.5-.2-.1,0-.3,0-.4,0,.1,0,.2-.2.2-.3,0-.2-.3-.3-.5-.4h0c-.5.2-.6.1-.6,0,0,0-.1-.2,0-.6.3-.4.2-.8,0-1.1,0-.2-.1-.5,0-.8,0,0,.1-.3.2-.5.2-.4.4-.8.2-1-.1-.2-.4,0-.5,0h0c-.4.3-.8.2-1.3.2-.2,0-.3,0-.5,0-.2-.1-.4-.2-.6-.2-.4,0-.8.2-1.2.4-.1,0-.2.1-.4.2h0c0,0-.2,0-.3,0-.5,0-1.7-.2-2.3-1,.1-.4-.1-.6-.3-.8-.2-.2-.4-.4-.4-.6h0c0-.1-.2-.3-.2-.3-.4-.3-1-.7-1.5-.7s-.4,0-.5.1h0c0,.1,0,.2-.1.2-.1.1-.3.3-.6.8-.8,0-1.5.2-2.1.8-.8,0-1.6,0-2.4,0-.5,0-1,0-1.5,0-.5-.2-.9,0-1.2,0-.2,0-.4.2-.6.2-.2-.1-.5-.2-.7-.1-.4,0-.7.4-.9.8h0c-.2,1.2-1.5,1.5-2.3,1.4-.3,0-.5,0-.6,0-.2.1-.1.3-.1.5,0,.2,0,.5-.2.6h0c-.3.6-.7,1.1-1.2,1.4,0,0-.3.2-.5.2-.4.2-.8.3-.8.6,0,.1,0,.3.2.4h0c.7.1.9.7,1.2,1.4,0,0,0,.1,0,.2,0,.1-.1.2-.2.3-.3.6-.6,1.1-1.1,1.4-.3.2-.5.5-.7.8-.2.3-.4.6-.7.7-.4,0-.5,0-.6.2,0,.1,0,.3,0,.4,0,.2.1.3-.1.4-.7.4-1.5.6-2.4.7-.4,0-.8.1-1.2.2h0c-.3.5-.8.7-1.4.9-.4.1-.7.3-1,.5-.3,0-.4.2-.5.3-.2.3,0,.6,0,.9,0,.1,0,.3,0,.4,0,.1,0,.2.1.3-.1.2,0,.5,0,1-.1.7-.8,1.3-2,1.8-.5.3-.9.1-1.4,0-.3-.1-.7-.2-1-.2h0c-.6.2-1.3,0-1.8-.4-.9-.7-1.9-.5-2.9-.3-.2,0-.5.1-.7.1h0c-.5.4-1,.8-1.5,1.1-.5.3-.9.6-1.4,1-.8,0-1.4.4-1.9.8-.2.1-.3.2-.5.3-.6.5-1.4.6-2.2.2-1-.2-2.4-.7-3-1.9-.6-1.8-1.8-3.2-3.3-3.6-.7-.6-1.4-1.1-2.2-1.6-.4-.3-.9-.6-1.3-.9-.5-.4-1.2-.5-1.8-.6-.4,0-.8-.1-1.2-.2-.3,0-.4-.3-.6-.6-.2-.3-.3-.5-.5-.6h-.2c-.1.2-.4.2-.6.1-.1,0-.2-.1-.2-.1,0,0,0,0,.2-.1v-.3c-.1,0-.4,0-.6,0-.5.1-.8.2-1-.2,0-.2,0-.3,0-.5,0-.4,0-.6-.7-.8-.3-.4-.7-.3-1-.2-.3,0-.4.1-.5-.2,0-.4-.2-.8-.4-1.1-.2-.3-.4-.6-.4-.9,0-.2-.1-.5-.3-.8,0-.1-.2-.4-.2-.5,0,0,0,0,.2,0,.3,0,.5,0,.6-.2.1-.1.1-.3,0-.5,0-.2,0-.4.2-.6.2,0,.4-.1.5-.3.1-.3,0-.6-.1-.8-.1-.2-.3-.2-.5-.2s0,0-.1,0c-.6-.1-.9.3-1.1.7-.2.3-.3.5-.6.6-.5.1-.5.5-.5.9,0,.4,0,.5-.4.6-.1,0-.3,0-.5,0-.3,0-.7,0-.8.3,0,.1,0,.3,0,.6-.3.8.4,1.1.9,1.3,0,0,.2,0,.2,0h0c.2,0,.4,0,.4.2,0,0,0,.3,0,.5,0,.2,0,.3,0,.5-.2.1-.4.4-.5.6-.3.4-.4.6-.8.6-.2-.5-.9-.8-1.6-.7-.4,0-.5-.1-.6-.5-.1-.2-.2-.5-.6-.7-.2-.2-.4-.3-.6-.3-.4,0-.5.6-.6,1h0c.1.6.5.8.8,1,.3.2.5.3.6.5h0c.3.2.7.4,1,.6.7.4,1.5.7,2.3,1,.4.2.8.3,1.2.4.5.1,1,.3,1.4.6,0,0-.2.2-.3.2-.3.2-.5.4-.5.7,0,.2.3.3.6.4h0c.9-.1,1.9-.2,2.8.1.4,0,.6.3.9.5.2.2.4.3.6.4.8.6,1.6,1.4,1.9,2.4,0,.9.9,1.3,1.6,1.6h.2c.7.4,1.6.7,2.1,1.5.2.3.4.7.3,1,0,.2-.2.2-.4.3h-.1c-.1.5.2,1,.8,1.5-.2.3-.4.3-.6.4-.1,0-.3,0-.5.1-.2,0-.4.1-.6.2-.4.1-.8.2-1,.5-.3-.1-.6,0-.8,0-.3,0-.5,0-.6-.1.1-.1.2-.2.3-.2,0,0,.1,0,.1-.1,0,0,0,0,.1-.1,0-.2,0-.4-.2-.8,0-.3-.4-1.1-.8-1.2-.1,0-.3,0-.5.2-.5.4-.7.8-1,1.3-.6-.2-1.1-.5-1.4-1,.3-.8-.3-1.4-1-1.8,0,0,0,0,0,0,0,0,.1,0,.2,0h.2c0-.5-.8-1.3-1.4-1.5-.3,0-.5-.3-.7-.5-.2-.3-.5-.7-1-.4-.4.2-.7,0-1-.2-.3-.1-.6-.3-.9-.3-.4-.4-1-.7-1.5-1h-.2c0-.1,0-.1,0-.1,0,0,0,0,0,0,0,0,0-.1-.1-.1h0s0,0,0,0c-.2,0-.4-.2-.6-.3l-.4-.2c-.1,0-.3-.2-.5-.4-.4-.3-.7-.5-.9-.5s0,0,0,0c-.2-.2-.6-.4-1-.4-.3,0-.4-.3-.6-.5-.2-.3-.5-.6-.9-.6h0c0,0-.2,0-.3-.1-.3-.1-.4-.2-.3-.4.2,0,.4-.2.4-.3.1-.2,0-.4,0-.7,0-.3-.1-.5,0-.7v-.2c-.2-.1-.1-.2,0-.5.1-.2.3-.4.2-.6,0-.1-.1-.2-.2-.3,0-.1,0-.2,0-.3,0-.4,0-.5-.7-.8-.6-.3-1.1-.8-1.2-1.4h0c0-.1,0-.2-.2-.3,0,0,0-.1,0-.2h0c-.2-.2-.3-.3-.5-.4-.5-.4-1-.8-1.7-.5-.2,0-.3,0-.3,0h0c0-.1.5-.3.8-.3v-.3c0-.1-.2-.4-.3-.6-.2-.4-.5-.7-.9-.9h0c-1.5.4-2.8.4-3.9-.1-.2-.2-.5-.2-.8-.3,0,0-.2,0-.3,0,0,0,0,0,0,0h0c.4-.4.8-.3,1.4,0,.2.1.4.2.7.3.4.4.9.2,1.2,0,.3-.1.5-.2.7,0h0s0,0,0,0c.4,0,.8-.4.9-.9,0-.3,0-.6-.3-.8-.4-.3-.7-.6-.7-.9,0-.2,0-.3.2-.5v-.2c0-.5-.4-.8-.8-.8-.2,0-.5,0-.7.4-.2-.1-.4-.4-.5-.6-.2-.3-.3-.5-.5-.6,0,0,0,0,0,0,0,0-.1,0-.2,0h0c0,.2,0,.3-.2.4-.2,0-.5,0-.7-.1-.3,0-.4-.2-.6,0v.2c0,.7.2,1.4.7,1.9.3.4.2.5.2.5,0,0,0,0-.6,0,0-.2-.1-.3-.2-.4-.2-.1-.5,0-.9.1,0,0-.2,0-.3,0h-.1c0,.3,0,.4,0,.5.1.2.3.2.5.2.3,0,.4,0,.4.3h0c.2.4.2.4.2.5,0,0-.3.1-.6.2h-.2s0,0,0,0c-.4.2-.6,0-1-.4-.1-.1-.2-.2-.3-.3-.2-.2-.4-.3-.6-.2-.3.2-.1,1,0,1.3-.2.2-.1.3-.1.4.1.4.9.5,1.2.5.4.3.9.7,1.5.8.2.2.6.3.9.4-.2,0-.4.2-.4.4,0,.3,0,.6.2.8,0,0-.1,0-.2,0-.2,0-.4-.4-.5-.5,0,0,0-.1-.2-.2h0s0,0,0,0c-.2,0-.3.2-.3.4,0,.4.4.7.9,1.1,0,0,0,0,.1,0,.1.4.3.6.6.9.1.2.3.3.4.5,0,.2,0,.4,0,.6,0,.4,0,.5-.3.6h0c0,0-.2.1-.2.2,0-.2,0-.6-.2-.7-.5-.2-1.1-.6-1.1-1.1v-.2c-.4,0-1-.2-1.1.1,0,.2.3.4.6.5.2.1.2.2.2.2,0,0-.3,0-.6-.1-.1-.4-.5-.6-.8-.6-.2,0-.3,0-.3.2,0,.2.1.3.4.5.2,0,.3.2.3.2,0,0,0,0,0,0-.1,0-.4.1-.6,0-.2-.2-.7-.5-1-.5h-.1c0,.3,0,.4.5.7.2.1.4.2.5.3.3.2.6.3.7.7-.1,0-.3,0-.5,0-.4,0-.9-.1-1.2.3-.2.3-.3.3-.5.2-.2-.1-.5-.3-.9,0-.3.3-.5.2-.8,0-.2,0-.5-.2-.8-.2-.2,0-.5,0-.8,0-.3,0-.7,0-.8,0,0,0,0-.1,0-.2h-.2c0-.2,0-.2,0-.2,0-.2-.3-.4-.9-.3-.2,0-.3,0-.3,0,0-.1.4-.4.8-.5h0s0-.1,0-.1c0-.5,0-.7,0-.8,0,0,0,0,0,0,.3-.2.3-.6.3-.9,0-.2,0-.5.1-.7v-.2c-.6,0-1,0-1.4.2-.3,0-.6.1-.9.2,0,0,0,0,0,0,0,0,.2-.1.3-.2.3-.2.5-.3.5-.5,0-.1-.2-.2-.3-.2-.2-.2-.2-.3-.2-.4,0-.3,0-.5-.5-.5,0,0,0,0,0,0,0,0,.3-.1.4-.2.3,0,.5-.2.5-.4,0-.2-.2-.3-.4-.3-.2-.1-.3-.3-.2-.4,0-.1.2-.2.5,0,.2.4.5.3.6.3.3-.1.5-.5.4-.9,0-.3-.2-.4-.5-.5h0s0,0,0,0c-.3.2-.5,0-.9-.2-.2-.1-.4-.3-.7-.3,0-.1,0-.3,0-.6,0-.3.1-.6,0-.8,0-.1-.2-.2-.4-.2-.4,0-.5-.1-.5-.2,0-.1.2-.4.5-.5v-.2c-.2-.4-.7-.4-1.1-.3-.2,0-.5,0-.7,0h0s0,0,0,0c0,0,0,0,0,0,0,0,0-.2,0-.3,0-.2.2-.4,0-.6-.1-.2-.4-.1-.5-.1h0s0,0,0,0c-.2.2-.5.4-.8.4-.3,0-.6,0-.8-.3h0s0,0,0,0c-.2,0-.4,0-.6,0-.3,0-.4,0-.6-.5-.1-.4-.3-.6-.6-.8-.5-.2-1.1-.2-1.9,0-.2,0-.4,0-.6,0-.3,0-.6-.1-.8,0-.1.1-.2.3-.2.6,0,.6-.1.9-.3,1.1-.1.1-.3.1-.6,0-1.4-.1-2.4-.5-3.2-1.1-.8-.9-2-1.3-3.4-1.2-.3,0-.6.1-.8.2-.4.2-.7.3-.9,0h-.2c-.1.1-.2.2-.3.4-.2.3-.5.6-.9.8h0c-.5.5-1.2.5-2.2,0-.3-.2-.6-.3-.9-.1-.3.1-.5.3-.6.5-.1,0-.2.1-.4.2-.2.1-.5.3-.6.2,0,0-.2-.2-.2-.3,0-.2.3-.3.5-.5.3-.2.7-.4.7-.8,0-.3-.3-.5-.5-.6,0,0,0,0,0,0,.1-.2.2-.4.3-.6,0,0,0-.1,0-.2.3-.3,0-.6-.2-.9-.3-.3-.4-.5-.2-.7.2-.4.2-1.1-.1-1.4,0,0,0,0,0,0h0c0-.1,0-.2,0-.2,0,0,.1,0,.2-.1.1,0,.2-.1.3-.2.4-.2.4-.6.5-.9,0-.4,0-.5.3-.6l.2-.2c0-.3.1-.6.3-1,.1-.2.3-.5.4-.8.2-.2.3-.3.3-.5,0,0,0,0,0,0,0,0,0-.2.1-.3,0-.2.1-.3.2-.3h.1s0-.1,0-.1c.3-1.5.8-3.1,1.9-4.1.5-.3,1.1-.6,1.7-.6h0c.2,0,.5,0,.7.2.4.1.8.3,1.2,0,.3-.3.5-.2,1,0,.2,0,.5.2.7.2h0c.3-.2.5-.1.7,0,.3.1.6.5.7.8h.1c.8.3,1.6.3,2.3.3h0c.4-.2.8-.3,1.3-.4.5-.1,1.1-.3,1.6-.5.4,0,.7-.3,1.1-.6.5-.4.8-.7,1.4-.5.1,0,.2,0,.4.1.7.3,1.4.5,2.3.5.3,0,.4,0,.7.3.2.2.5.5,1,.4.6,0,1.2.2,1.9.3,1.1.2,2.3.5,3.4.3h0c.2-.2.5,0,.8,0,.2,0,.4,0,.5,0,0,.2.1.3.3.4,0,.2,0,.4.2.5.3.3.8.3,1.3.3.2,0,.3,0,.5,0,.5,0,.9,0,1.3.3.4.1.8.3,1.2.3h0c.4,0,.8,0,1,.3.1.1.2.3.1.6v.2c1.1.9,2.6,1,4,1h.4c1.3-.5,2.7-.9,3.8-1.8,1.1-.7,1.1-2.3.5-3.4.1-1,1.1-1.6,2.1-2.1.8-.5,1.6,0,2.3.5.1,0,.2.1.3.2,1.6,1.1,3.5,1.8,5.7,1.9.7,0,1.7.3,2.4,1.1.3.2.4.6.5,1,.2.5.3,1,.9,1.2h0c.9,0,1.8.2,2.3.8h0c.8.3,1.7.4,2.9.4h0c1-.3,2.1-.2,3.1.3h0c.2,0,.4.2.7.3.3.2.6.3.9.3h0s.6.3.6.3c.1,0,.2.3.3.4.2.3.3.6.6.6.2,0,.4,0,.6-.2.5,0,1,.4,1.5.8,0,0,.2.2.3.2.2.1.2.3.2.4,0,.3-.5.7-.7.9h0c-.2.3-.5.5-.8.7-.4.2-.8.5-1,.9-.7.6-.4,1.3-.1,1.9h0c0,.1,0,.1,0,.1.6.2,1.1.6,1.2,1.2,0,.5-.2.7-.6,1.1-.3.2-.5.5-.7.8-.4.6-.2.9,0,.9.3.2.7,0,1.1-.4.2-.2.7-.5.9-.4.1,0,.2.2.3.4,0,.7.7,1.1,1.7,1.2.8.1,1.3-.2,1.9-.6.3-.2.6-.4.9-.5h0s0,0,0,0c0,0,0,0,.1-.1,0,0,0,0,0,0h0s0,0,0,0c.3,0,.6,0,.9-.1.4-.1.9-.2,1.2,0,.2.3.5.6,1,.7.4,0,.8,0,1.1-.3.4-.5.9-.3,1.6.1.1,0,.3.2.4.2.4,0,.6-.2.9-.4.2-.2.5-.4.8-.4h0s0,0,0,0c1-.4,2.2-.4,3.4.1,1.1.1,2,.1,2.7,0h0c.9-.5,1.6-.6,2.2-.3h0c0,0,0,0,0,0,.7-.5,1.6-.5,2.5-.5.4,0,.7,0,1.1,0,1.9,0,3.5-.8,4.4-2,.2-.3.4-.2.7,0,.3.1.6.2.9,0,.3-.2.6-.2.9-.3.5-.1.9-.2,1.3-.6h0c.3-.9,1.3-1.2,2.1-1.2h0s0,0,0,0h0c0,0,.1,0,.2,0,.2,0,.3,0,.5,0,.7,0,1.2.3,1.5.8h.2c.9-.7,2.1-.6,3.3-.6.3,0,.7,0,1,0h.1c.8.3,1.6.6,2,1.3.1.3.3.5.6.6.4.1.9,0,1.3-.3h0s0,0,0,0c.2-.4.3-.8.5-1.2.5-1.1.9-2.2,1.7-3.2.7-1,1.8-1.4,3-1.8,1-.3,2-.7,2.7-1.4.2-.2.4-.4.6-.6.4-.3.9-.7.9-1.3h0s0,0,0,0c-.2-.7.3-1.3.8-1.9.1-.2.3-.3.4-.5.9-1,.6-2.4,0-3.4-.2-1.1.6-2,1.4-2.8.2-.2.4-.4.6-.6.4-.3.9-.6,1.3-1,1.2-.9,2.4-1.9,4-2.3.2,0,.5-.1.7-.1.8-.1,1.7-.3,2-1.2h0c.3-.3.4-.7.6-1,0-.2.2-.4.3-.6h0c.2-.8.9-1.2,1.6-1.6.3-.2.6-.3.9-.5,1-1,1.6-2.5,1.6-4.1.2-.6.8-1,1.3-1.4.6-.4,1.2-.9,1.4-1.6.2-.5.5-1,.7-1.4.3-.8.7-1.7,1.2-2.3.7-.7,1.6-1.7,1.6-3.1h0c.2-.3.2-.8.1-1.2,0-.1,0-.2,0-.3h-.3c-.1,0-.3.2-.6.2-.3,0-.5-.2-.6-.5h0c-.8-.6-.8-1.7-.6-2.9.6-.7.5-1.2-.2-1.8-.9-1.6-.8-3.8.2-5.9.2-.3.5-1.2.2-1.4-.2-.1-.5,0-.7.3-1,.2-2.2.3-3.2.4-.3,0-.5,0-.8,0-.8,0-1.5-.4-2.1-.9h0c-.3-.3-.7-.4-1.1-.5-.5,0-.9-.2-1-.6-.6-1.7-2.1-2.7-3.5-3.6,0,0,0,0,.1,0,.1,0,.3-.2.4-.3h0c0-.8,0-1.4-.3-2,0-.3-.2-.6-.2-.9,0-.6-.5-.8-.9-1.1-.2-.2-.5-.3-.6-.5-.2-.7-.2-1.4,0-2v-.2c-.3-.2-.6-.4-.9-.6-.4-.3-.7-.6-1.2-.8-.4-.2-.6.2-.9.4-.3.3-.4.5-.7.3-.4-.2-1.5-.7-2.1.1-.2.2-.8.8-1.2.7-.1,0-.2,0-.3-.2v-.3c-.2-.6-.4-1.4-.8-1.9h0c-.9-.7-1.1-1.8-1.2-2.9h0c0-.2-.2-.3-.2-.5-.2-.4-.4-.7-.7-.7h0c-.3,0-.4.3-.5.5-.4.4-1,0-1.5-.6h-.1c0-.1-.2-.2-.2-.2-.4.2-.6.5-.9.8-.3.3-.5.6-.9.8-.1,0-.2,0-.3,0-.1,0-.2-.3-.2-.6,0-.2,0-.5-.2-.6-.4-.5-.9,0-1.3.2-.2.1-.3.2-.4.3h0c-.6,1-.9,2.2-.9,3.5h0c0,.3,0,.4,0,.5,0,.2-.4.3-.7.4-.1,0-.2,0-.3,0-1,.3-1.3,1.3-1.4,2,0,.2-.2.5-.2.7-.2.7-.3,1.3-1,1.5,0,0,0,0-.1-.1-.4-.4-1-.9-1.7-.6h0c-.2.3-.3.6-.5.9-.4.7-.7,1.3-1.3,1.8h0c0,.2-.2.3-.4.3-.4,0-.8-.2-1.2-.4h0c-.5-.1-.7.3-.8.7-.1.4-.2.6-.5.6-.5.2-1,.5-1.4.7-.5.3-1,.6-1.6.8-1.1-.2-2.2-.4-3.1-.5-.9-.3-1.8.3-2.4.8-1.3.2-2.7.3-4,.3-.6,0-1.2,0-1.8,0h0c-1.3.5-1.8,1.9-2.2,3.1-.5,2.2-.4,4.4-.3,6.5,0,.4,0,.8,0,1.1-1.4.3-2.8.5-4.2.8h0c-.9.7-1.7,1.4-2.5,2.1-.6.5-1.2,1-1.8,1.5-2.1,1.6-4.5,3-6.8,4.3l-.4.2c-1.1.6-2.3,1.3-3.4,1.9-.9.5-1.9,1-2.8,1.6h0c-.3,0-.7-.2-1-.2-.7-.2-1.4-.3-2.1-.6-1-.2-1.8-.8-2.6-1.5-.4-.5-.9-.2-1.3,0-.2.1-.4.3-.7.3-.4.2-.9.4-1.3.6-.7.4-1.5.8-2.3.9l-4.9-2.4c-5.8-2.8-11-5.3-15.9-7.8-.2,0-.5-.2-.7-.3-.4-.2-.9-.5-1.2-.5h-.2c0,.3,0,.5,0,.6,0,.3,0,.7-.2.8-.1,0-.3,0-.4,0h0c-.2,0-.5,0-.8,0-.5,0-.9,0-1.3.1h0c0,1.1,0,2,0,2.9,0,.8,0,1.6,0,2.4,0,0-.2,0-.3,0s-.4,0-.6.1c-6.1,0-12.4,0-18.4,0-4.5,0-8.9,0-13.4,0-.4-.1-.7,0-.8.1-.2.3.3.9.6,1.1,0,0,.2.2.3.3.4.4.7.8,1.3,1,.8.4,1.3,1.2,1.4,2.1h0c.1.2.2.3.2.4,0,.1-.2.2-.3.4-.2.1-.5.4-.2.7h0c1.1.7,1.8,1.9,2.4,3,.4.6.7,1.2,1,1.8.4.9.9,1.8,1.5,2.5.2.7.5,1.3.8,1.9.3.5.6,1.1.7,1.7h0c.3.5.6.9,1,1.3.6.6,1.2,1.3,1.4,2.1,0,.2.2.4.3.6.3.5.4.9.1,1.2,0,.1-.2.2-.4.2-.2,0-.4-.4-.5-1,0-.5-.4-.7-.6-1-.2-.2-.4-.4-.5-.7-.1-.9-.8-1.5-1.4-2.1-.3-.3-.6-.6-.9-.9h0c-.3-.2-.5-.3-.7-.2-.4.2-.6.9-.7,1.3,0,.2,0,.4-.1.6-.2,1-.5,2.1-1.3,2.8h0s0,0,0,0c0,0,0,0,0,0,0,0,0,0,0,0,0-.2,0-.3,0-.5h0c0-.5.2-1.1.3-1.6v-.4c.3-.5.5-.9.4-1.2-.1-.2-.4-.2-.8-.2-.6-.5-1.2-1.2-1.7-2-.6-1.1-1.3-2-2.1-3-.6-.7-1.2-1.5-1.7-2.3-.6-.8-.7-1.5-.4-2.2V-.1c0,0-.2-.2-.2-.3-.4-.5-.8-1-1.5-1-1.4-.6-2.1-1.9-2.8-3.1-.1-.2-.3-.5-.4-.7-.5-.7-.5-1.5-.5-2.3,0-.4,0-.9,0-1.3,0-.8-.3-1.4-.8-2-.1-.2-.3-.3-.4-.5-.5-.8-1.2-1.2-2-1.5-.4-.2-.8-.4-1.2-.7-.6-.6-1-1.5-1.4-2.3-.1-.3-.2-.5-.4-.8-.5-1.2-1-2.4-2.1-3-1-1.1-2.2-2.4-2.4-4h-.3c0,0,0-.1,0-.1,0,0-.1,0-.2,0,0,0,0,0,0,0-.7.5-1.1,1.1-.9,1.8,0,.4,0,1-.3,1.3-.1.1-.3.1-.5,0-.7-.3-1.3-.2-2-.2-.2,0-.3,0-.5,0-1-1.9-2-4.1-3.2-6.5h-.3s-.1.1-.1.1c-1.4,1.9-2.9,3.8-4.4,5.5-.2.2-.3.4-.5.6-.3.4-.5.7-.9.9-4.5,1.6-8,2.7-11.2,3.8-3.3,1.4-6.4,3.2-9.5,4.9-1,.6-2.1,1.2-3.1,1.7v.2c0,.2,0,.5,0,.8,0,.5,0,1.1.4,1.5.1.4.3.7.6.7.3,0,.7-.1,1-.5,2.9.4,6.2.8,9.5,1.2.3,1,.7,2,1.2,2.9.2.4.4.9.6,1.4,0,0,0,.2.1.2.2.5.5,1.2,1.3,1.1.4.1.4.4.5.8,0,.3.1.5.3.8.2.2.2.4.3.7,0,.4.2.8.7,1h.1s.2.1.3.5c.1.3.1.5.1.6-.4.4-.2.8,0,1.1.1.3.2.4,0,.5-.3.1-.4.4-.3.6.1.4.8.9,1.2.8.5,0,.9.4,1.3.9,0,.2,0,.3,0,.4.1.2.4.2.7.3.1,0,.3,0,.4,0,0,.5.3.9.6,1.3.2.3.4.6.5,1h0c.3.3.7.3,1.1.2.3,0,.6,0,.8,0h0c.3,0,.4,0,.6.5.1.3.3.7.7.7.7.1,1.4.2,2.1.3-.2.1-.4.3-.5.6-.3.3-.5.6-.6.9-.1.3-.3.5-.4.7-.3.1-.7.1-1.1.1-.5,0-.9,0-1.3.2,0,0-.2,0-.4,0-.5,0-.9,0-1.1.1h0c-.7-.2-.9.3-1.1.7-.1.2-.2.5-.4.6-.2.1-.3.1-.3.1,0,0,0-.2,0-.3,0-.3,0-.8-.6-.8-.5-.3-1.1-.2-1.6-.1-.1,0-.2,0-.3,0-.2-.1-.4-.4-.5-.6-.2-.3-.4-.6-.7-.8-.3-.2-.3-.4-.3-.7,0-.3,0-.7-.4-1-.2-.3-.4-.7-.6-1.1-.4-.8-.8-1.6-1.6-2.1h0c-.6,0-1.3-.2-2-.6-.3-.2-.6-.5-.9-.9-.2-.2-.4-.4-.6-.6h0c-.3-.2-.6-.3-.9-.4-.5-.1-.9-.3-1.2-.6h-.1c-.9,0-1.5-.3-2.1-.6-.3-.3-.6-.4-1-.4-.4,0-.7.3-.9.6-.3.2-.6.4-.8.6-.2.1-.4.2-.6.4-.4,0-.6.1-.9.2-.3.1-.5.2-.8.2h0c-.6,0-1.3,0-1.6-.4h0c-.3-.1-.3-.4-.4-.8,0-.3,0-.5-.2-.8,0-.3-.3-.5-.4-.7-.2-.3-.4-.5-.3-.9h0c-.3-.3-.6-.4-.8-.4-.3,0-.7-.1-.9-.3h0c-.4-.1-.9-.1-1.3-.1-.3,0-.7,0-1,0-.2,0-.4-.2-.6-.3-.3-.2-.7-.5-1.3-.3-.5,0-1,0-1.5,0-1,0-1.9,0-2.6-.5-.5-.3-1.1-.3-1.7-.3s-.4,0-.5,0h-.2c0,.3,0,.6-.1.8-.1.7-.2,1.4-.5,2-.5.7-1.4,1.2-2.5,1.4-.7,0-1.2.1-1.4.4-.2.2-.2.4-.2.7-.1.4,0,.9.2,1.1ZM-275.7,40.6c.7,0,1.5,0,1.9.6.2.2.4.4.6.5.3.2.6.4.8.8,0,0,0,.2.1.2-.1,0-.2,0-.3,0-.4,0-.6,0-.7-.1-.3-.6-.9-.5-1.4-.5-.1,0-.2,0-.3,0,0-.3-.2-.4-.4-.6-.2-.2-.3-.3-.3-.5h0c0-.2-.1-.4-.2-.5,0,0,.2,0,.3,0ZM-227.7,45.9c0-.1-.2-.2-.3-.2.3,0,.7,0,1-.1.3-.1.5-.2.5-.4,0-.2-.2-.2-.5-.3,0,0-.2,0-.3,0,.8.2,1.7.2,2.8,0,0,0,0,0,0,0,.1.2.6.4.9.3.2,0,.2-.2.2-.4h0c0,0,0,0,0,0,0,0-.1,0-.1,0,.2,0,.8,0,1,.1.3.5.7.3,1.1.2.2,0,.4-.2.6-.1-.3.2-.7.3-1.1.4l-.4.2h0c-.2.8-.8.9-1.4.8h0s0,0,0,0c-.6.2-1.3.4-1.9,0-.4-.2-.9-.2-1.2,0,0,0-.1,0-.2.1h0c0-.1-.2-.4-.5-.4ZM-200.5,84.4c.2,0,.5-.2.7-.3-.2,0-.4.2-.6.2-.1,0-.2,0-.3.1,0,0,.1,0,.2,0ZM-118.8,40.1c0,0-.2.2-.2.2,0,0,0,0,0-.2.2,0,.3-.1.4-.2,0,0-.1.1-.2.2ZM-185.2,82.8s0,0,0,0c-.1,0-.3-.1-.5,0,0,0,0-.1,0-.2,0,0,0-.2,0-.3.3.1.4.2.6,0,0,0,0,0,0,0,0,0,.1.1.2.1.1,0,.3,0,.4.1.3,0,.6.1.7.3,0,0,0,0,0,0-.3-.1-.6-.2-.9-.2,0,0-.2,0-.2,0,0,0,0,0,0,0Z"/>
    </g>
    <rect id="rect2350" class="st1" x="460.4" y="108.5" width="153" height="77"/>
    <path class="st0" d="M31.7,48c-.1.3,0,.7.1.9h0c.1.1.2.2.1.3,0,.2-.2.4-.4.4-.1,0-.2,0-.2-.3-.2-.3-.8-1.1-1.3-1.1-.1,0-.3,0-.4.3h0c0,.3,0,.6,0,.9,0,.4,0,.9.3,1.3,0,0,0,.2,0,.3,0,0-.2,0-.4,0,0,0-.2-.2-.1-.5v-.2c-.5-.3-.8,0-1.1.2,0,0-.2.2-.3.2,0,0,0,0-.1-.3h0c0-.1-.2-.3-.3-.5-.2-.4-.4-.8-.7-.8-.1,0-.3,0-.4.2-.5.7-.6,1.4-.3,1.8-.5.6-.6,1.4-.4,2.4-.2.5-.3.7-.4.8,0,0,0-.2-.1-.4-.1-.4-.4-.7-.8-.8-.4,0-.7.1-.9.5-.2.2-.2.4-.3.7,0,.1-.1.4-.2.5,0,0,0,0-.3-.2-.6-.6-1.2-.8-1.7-.6,0-.4.1-.8.2-1.1.2-.7.3-1.3.3-2,0-.4-.1-1.4-.5-1.6-.1,0-.3,0-.4,0h0c0,.2,0,.3,0,.5,0,.3-.1.6-.3.7,0,0-.2,0-.4-.1h0c-.6,0-.8-.6-.8-1.6,0-.1,0-.2,0-.4,0-.6.1-1.5-.5-1.6h-.1c-.6.5-.7,1.2-.9,1.8-.1.5-.2,1-.5,1.4-.7.9-1.3,1.9-.9,3,0,0,0-.1-.1-.2-.2-.3-.3-.5-.5-.6,0-.4.2-.9.4-1.4,0-.1,0-.2.1-.4,0-.1,0-.3.1-.4.1-.4.2-.9,0-1.2,0,0-.1-.2-.2-.2,0-.5-.2-.7-.4-.9-.2-.2-.3-.3-.4-.6,0-.4-.1-.8-.3-1.1-.1-.2-.2-.5-.2-.7,0-.8-.1-1.2-.4-1.2-.2,0-.3.2-.5.7-.2.1-.3.3-.4.4,0,.3,0,.6.2.8,0,.2.2.4.2.6.1.3,0,.7,0,1,0,.3-.1.6,0,.9,0,.2-.2.3-.4.5-.3.2-.6.5-.4,1,.1.3.4.4.6.6.3.2.5.3.2.8h0c0,.7-.1,1.2-.7,1.8v.2c.2.1,0,.4-.2.8-.1.3-.3.5-.1.6,0,0,.2.1.3,0,0,.2,0,.4-.1.6,0,.5-.2,1-.2,1.5,0,.3-.1.5-.3.8-.2.3-.4.7-.3,1.1,0,.4-.1.8-.3,1.2-.2.5-.5,1-.2,1.6.1.3,0,.6,0,.8,0,.3-.1.6,0,.9-.1.5.1,1.1.5,1.3.1,0,.4.1.7-.3h0c0-.7.3-1.3.5-1.9,0,.4,0,.7.1.8.2.4.3.8.4,1.3,0,.5.2,1.1.6,1.5.2.2.5.3.9.3.4,0,.9-.2,1.2-.5.5-.8,1.2-2,.6-3.1,0-.4.2-.5.2-.5,0,0,.2.1.4.6h0c.9.5,1.5-.5,1.8-.9h0s0,0,0,0c0-.1.1-.1.5,0,.3.2.7.4,1.1,0,.2-.2.5-.4.7-.5.4-.2.8-.5,1.1-.9h0c0,0,0,0,0,0,.2-.8.8-1.3,1.5-1.3h0c.2,0,.4,0,.6,0,.4,0,.8,0,1.1-.5,0,0,.2-.1.2-.2.5-.4,1-.7,1.2-1.4.4-.4.4-1,.4-1.4,0-.4,0-.8.2-1.1h0c0,.2,0,.5,0,.7s0,.5,0,.7c0,.4,0,.7.2.8.2,0,.4-.1.6-.5,0,.4,0,1,.3,1.2.1.1.2.4.4.6.2.4.4.9.8.9,0,0,.2.2.2.3.2.3.4.6.7.6.2,0,.4-.1.6-.4h0c.1-1,.4-1.9.7-2.7,0-.3.2-.5.2-.8,0-.2,0-.5.1-.7,0-.5.1-1.1.5-1.4.5.3.5.9.6,1.5,0,.2,0,.4,0,.7,0,0,0,.2,0,.4,0,.5.1,1.1.4,1.2.2,0,.3,0,.5-.1h0c.4-.8.5-1.7.6-2.6,0-.3,0-.6,0-.9h0c0-.3.1-.6.3-.8.2-.3.5-.6.3-1,0-.2-.1-.3-.2-.4-.2-.1-.4,0-.6,0,0,0,0,0-.1,0,0,0,0-.2,0-.4,0-.2.2-.5,0-.6-.2-.1-.4,0-.7.2-.1,0-.3.2-.4.2,0-.2,0-.4.2-.6.2-.4.4-.8,0-1.3h-.2c-.3.4-.6.5-.7.5,0,0,0-.1,0-.5l-.2-.2c-.5.3-.7,0-1-.6,0-.1-.1-.2-.2-.3-.2-.4-.4-.4-.6-.4-.2,0-.4.1-.5.4Z"/>
    <path class="st0" d="M41.1,47.2c-.2-.1-.4-.2-.5-.1-.3.1-.3.5-.3.6h0c.2.3.3.6.2.7,0,.2-.4.3-.7.3l-.2.2v.3c.4.8.7,1.5,1.2,2.2.2.7.6,1.2,1.2,1.6.9.8,1.5,1.8,1.7,2.8h0c.3.5.7.9.8,1.6h.1c.2.2.4.2.6.3.4,0,.8.1,1.1.4h.1c.6,0,1-.3,1.5-.6.2-.1.3-.2.5-.3.2-.1.4-.3.5-.5.1-.1.3-.3.3-.3,0,0,0,0,.1.3h0s0,0,0,0c0,.2.3.6.5.8.2.2.4.4.7.4.4,0,.7-.2,1-.5.7-.1,1.1-.8,1.4-1.5h0c-.1-.4-.2-.7-.2-1.1,0-.4-.1-.9-.4-1.3,0-.1-.2-.3-.3-.5-.1-.3-.3-.6-.6-.8,0,0,0-.2,0-.3,0-.2,0-.4.2-.6h0c0-.7-.5-1.3-.9-1.7h-.1c-.7-.2-1.1-.3-1.4-.9h-.2c-.2,0-.1.4,0,.9,0,.2.2.5.2.6-.2,0-.3-.3-.4-.5-.1-.2-.3-.5-.5-.5,0,0-.2,0-.2,0,0-.2,0-.3,0-.5,0-.6-.2-1.1-.5-1.6,0,0,0-.2,0-.3,0-.6,0-1.2-.8-1.5-.4-.2-.6-.2-.7,0-.2.2-.1.4,0,.7,0,.2,0,.3,0,.5-.1,0-.4,0-.6,0-.1,0-.2-.2-.2-.4h-.2s0-.1,0-.1c0,0,0,0,0,0-.2,0-.5,0-.6.1-.1.1-.1.3,0,.6h0s0,0,0,0c.2.3.2.7.3,1,0,.2,0,.5.1.7h0s0,.2,0,.2c0,.1,0,.4,0,.6,0,0,0,0,0,0,0-.5-.4-.8-.7-1-.2-.1-.5,0-.7,0-.2-.1-.4-.2-.5-.1,0,0,0,.1,0,.2-.1-.3-.3-.5-.6-.5h0c-.2,0-.3,0-.4,0-.2-.1-.3-.5-.4-.8,0-.2,0-.3-.1-.4-.2-.4-.3-.5-.4-.5,0,0-.1,0-.2,0,0,.1,0,.5,0,.8ZM43.5,49.4c0,0-.2-.3-.2-.5,0,0,0,.1,0,.2,0,0,0,.2.1.3ZM45.4,46.3h-.1s0,0,0,0c0,0,0,0,0-.1h0Z"/>
    <path class="st0" d="M19.3,43.4c0-.3-.3-.4-.6-.5-.2,0-.5-.2-.5-.3,0,0,0,0,.1-.3,0-.2,0-.4-.2-.5-.4-.2-1.6,0-2.1.9v.2c.2.6.6,1.1,1,1.6.2.2.4.5.6.8,0,0,.1.2.2.3.3.4.9,1.1.8,1.5,0,0,0,.2-.3.3v.4c1.4,1.1,2.7,2.2,4,3.3,0,.4.4.6.9.5.5-.1,1.2-.5,1.2-1,0-.3-.2-.4-.6-.3-.2-.2-.5-.3-.9-.4-.2,0-.5-.2-.6-.2,0,0,0,0,.1-.2.2-.2.3-.4.3-.5,0-.4-.3-.6-.7-.9-.3-.2-.7-.5-.8-.9-.2-.9-.8-1.6-1.8-2.1h0c-.4,0-.6-.8-.6-1.1h.1c.2-.2.2-.4.2-.5ZM18.9,44s0,0,0,0c0,0-.1,0-.1,0h.1Z"/>
    <path class="st0" d="M73.1,14.8h0s-.3,0-.3,0c-.9.2-1.6.4-2.2-.3h-.3c-.4.2-.7.5-1,.9-.2.2-.3.5-.5.6v.2c-.1.3.2.5.5.6,0,0,.3.2.3.2s0,.2-.6.6h-.1c-.2.9,0,1.7.5,2.1.2.2.7.3,1.4-.1.4-.2.4-.7.4-1.2,0-.3,0-.7.2-.8,0,0,.2,0,.5,0,.4.4.7.6,1.1.6.5,0,.8-.4,1.3-.8.1-.1.2-.3.4-.4.3,0,.4-.3.4-.4.2-.5-.5-1.2-.7-1.4-.2-.2-.8-.7-1.2-.6Z"/>
  </g>
</svg>