<svg width="35" height="19" viewBox="0 0 35 19" fill="none" xmlns="http://www.w3.org/2000/svg">
<path d="M12.174 3.04349H19.7827L22.8261 9.13044H9.13049L12.174 3.04349Z" fill="#211D53"/>
<rect x="29.1407" width="2.58846" height="9.04857" transform="rotate(60 29.1407 0)" fill="#211D53"/>
<path d="M31.1953 10.6522C33.2964 10.6522 35 12.3558 35 14.4568C34.9998 16.5578 33.2963 18.2606 31.1953 18.2606H3.80469C1.70372 18.2606 0.000183601 16.5578 0 14.4568C0 12.3558 1.70361 10.6522 3.80469 10.6522H31.1953ZM3.80469 12.1736C2.54404 12.1736 1.52148 13.1962 1.52148 14.4568C1.52166 15.7173 2.54415 16.7391 3.80469 16.7391C5.06507 16.7389 6.08673 15.7172 6.08691 14.4568C6.08691 13.1963 5.06518 12.1738 3.80469 12.1736ZM12.9346 12.1736C11.674 12.1738 10.6523 13.1963 10.6523 14.4568C10.6525 15.7173 11.6741 16.739 12.9346 16.7391C14.1951 16.7391 15.2176 15.7173 15.2178 14.4568C15.2178 13.1962 14.1952 12.1736 12.9346 12.1736ZM22.0654 12.1736C20.8048 12.1736 19.7822 13.1962 19.7822 14.4568C19.7824 15.7173 20.8049 16.7391 22.0654 16.7391C23.3259 16.739 24.3475 15.7173 24.3477 14.4568C24.3477 13.1963 23.326 12.1738 22.0654 12.1736ZM31.1953 12.1736C29.9348 12.1738 28.9131 13.1963 28.9131 14.4568C28.9133 15.7172 29.9349 16.7389 31.1953 16.7391C32.4559 16.7391 33.4783 15.7173 33.4785 14.4568C33.4785 13.1962 32.456 12.1736 31.1953 12.1736Z" fill="#211D53"/>
<rect x="21.1003" y="3.04349" width="5.23152" height="1.52174" transform="rotate(60 21.1003 3.04349)" fill="#211D53"/>
<path d="M6.08692 7.6087H28.913L30.4348 10.6522H4.56519L6.08692 7.6087Z" fill="#211D53"/>
</svg>
